<svg width="500" height="287" viewBox="0 0 500 287" fill="none" xmlns="http://www.w3.org/2000/svg">
<path d="M496.51 143.17C496.72 139.67 496.72 135.96 496.72 132.05C496.72 125.79 491.65 120.72 485.39 120.72C479.13 120.72 474.06 125.79 474.06 132.05C474.06 140.5 473.85 148.53 473.24 155.95C471.59 171.81 466.44 185.82 459.44 193.03C453.06 199.99 442.24 200.46 435.28 194.08C434.71 193.56 434.18 193 433.69 192.41C422.77 180.26 419.48 153.48 421.95 133.29C422.55 127.06 418.07 121.48 411.86 120.72C405.63 120.12 400.05 124.6 399.29 130.81C398.16 141.22 398.16 151.72 399.29 162.12C399.29 162.94 399.08 163.97 399.08 164.8C394.14 204.15 377.24 212.39 364.06 212.39C359.85 212.26 355.68 211.5 351.7 210.12L352.32 209.3C365.09 195.09 372.51 176.34 372.51 159.65C372.51 148.73 369.42 139.46 363.45 132.66C357.48 125.86 350.06 120.71 335.02 120.71C322.56 120.65 310.98 127.14 304.53 137.81C294.44 153.47 293.61 176.74 302.26 195.9C304.57 200.93 307.63 205.58 311.32 209.7C306.5 211.45 301.41 212.35 296.28 212.38C280.42 212.38 257.35 193.02 244.16 178.8C258.67 167.31 271.44 153.78 282.06 138.63C285.7 133.51 284.5 126.41 279.38 122.77C274.26 119.13 267.16 120.33 263.52 125.45C252.85 140.85 239.61 154.29 224.38 165.21V132.04C224.38 125.78 219.31 120.71 213.05 120.71C206.79 120.71 201.72 125.78 201.72 132.04V198.37L201.1 197.96L199.66 196.72L197.19 194.87L195.54 193.63L192.86 191.78L191.62 190.75L188.12 188.48L187.5 188.07L182.97 185.19H182.76L178.64 182.72L177.61 182.1L174.11 180.25L173.08 179.63L169.58 177.57L168.55 177.16L164.22 174.89H164.01L162.98 174.27L159.68 172.83L157.41 171.8L155.14 170.77L153.08 169.74L150.4 168.71L148.96 168.3H148.55L145.46 166.65C152.27 158.27 158.34 149.31 163.59 139.87C171.01 126.66 176.23 112.33 179.04 97.43C180.49 89.55 180.91 81.52 180.28 73.53C179.88 69.44 179.19 65.37 178.22 61.38C177.32 57.34 176.01 53.41 174.31 49.64C172.72 45.77 170.79 42.05 168.54 38.52C166.3 35.05 163.82 31.75 161.12 28.63L156.79 24.3L152.46 20.18C149.34 17.55 146.03 15.14 142.57 12.97C135.45 8.37 127.57 5.09 119.29 3.29C111.01 1.64 102.51 1.43 94.1602 2.67C86.0102 3.88 78.1002 6.31 70.6802 9.88C63.4402 13.32 56.7102 17.76 50.7002 23.06C44.4302 28.29 39.0002 34.48 34.6602 41.4C32.2602 45.09 30.2602 49.03 28.6902 53.14C26.9902 57.9 26.0902 62.92 26.0102 67.97C26.0102 75.71 32.2902 81.98 40.0202 81.97C47.7502 81.97 54.0202 75.7 54.0202 67.97C54.0402 66.2 54.3902 64.46 55.0502 62.82C55.8302 60.58 56.8602 58.43 58.1402 56.43C61.1402 51.91 64.7502 47.82 68.8502 44.28C77.2202 37.03 87.4002 32.19 98.3102 30.27C103.38 29.58 108.53 29.72 113.55 30.68C118.58 31.89 123.38 33.9 127.76 36.65C132.34 39.57 136.5 43.11 140.12 47.16C141.94 49.1 143.53 51.24 144.86 53.55C146.3 55.77 147.54 58.12 148.57 60.55C150.65 65.46 151.9 70.68 152.28 76C152.72 81.57 152.44 87.18 151.46 92.69C149.18 104.57 144.93 115.99 138.89 126.47C132.74 137.35 125.5 147.56 117.26 156.96L116.02 158.4L113.14 157.99L111.08 157.58L108.2 157.17H103.26L100.79 156.76L96.2602 156.35H78.7402C75.2402 156.35 71.7402 156.76 68.2302 156.97H67.4102L63.0802 157.59H60.0002L57.9402 158L56.2902 158.41L51.7602 159.44H51.1402L45.9902 160.88L44.7502 161.29L40.8402 162.53H40.2202L39.1902 162.94L35.8902 164.38L34.0402 165L30.7402 166.65L29.5002 167.06H29.1002L24.7702 169.33H24.1502L22.9102 170.15H21.4702L20.4402 170.77C18.9802 171.68 17.6002 172.72 16.3202 173.86C8.40016 180.38 3.43016 189.81 2.52016 200.02C2.15016 203.39 2.29016 206.79 2.93016 210.11C3.04016 210.6 3.18016 211.08 3.34016 211.55V211.96H3.55016C3.59016 212.4 3.73016 212.82 3.96016 213.2C3.96016 213.61 3.96016 213.82 4.17016 214.02C4.21016 214.46 4.35016 214.88 4.58016 215.26C4.77016 215.91 5.05016 216.54 5.40016 217.11C5.72016 217.56 6.00016 218.05 6.22016 218.55H6.43016C6.44016 218.71 6.52016 218.86 6.64016 218.96C6.87016 219.47 7.14016 219.95 7.46016 220.4C7.67016 220.61 7.67016 220.81 7.87016 220.81C8.10016 221.32 8.37016 221.8 8.69016 222.25L9.10016 222.66L10.3402 224.1H10.5502L11.7902 225.54C12.0202 225.54 12.2002 225.72 12.2002 225.95L13.2302 226.77L13.8502 227.18L14.8802 228L15.2902 228.41L16.5302 229.23L16.9402 229.64L18.5902 230.67H18.8002L20.2402 231.49L20.8602 231.9H21.4802C21.5902 231.9 21.6902 231.99 21.6902 232.11L24.3702 233.14H24.5802L27.2602 234.17H27.6702L30.3502 234.99H40.8602L43.3302 234.58H43.9502L46.0102 234.17H47.6602C54.9802 232.26 62.1502 229.78 69.0802 226.75C82.4802 221.09 95.1302 213.83 106.78 205.12C113.95 199.59 120.77 193.6 127.17 187.2H127.58L130.05 187.82L131.7 188.23L135.61 189.47L136.43 189.88L139.93 191.12L141.17 191.53L144.26 192.77H145.08L148.99 194.42H149.2L154.35 196.69L159.91 199.57L160.94 199.98L167.12 203.69L167.74 204.1L173.92 207.81L180.1 211.72L180.92 212.34L186.69 216.46L187.1 216.87L192.25 220.78C192.46 221.19 192.87 221.4 193.07 221.6L198.22 225.93L199.25 226.96L204.4 231.7C206.04 233.26 208.13 234.27 210.37 234.58L212.84 234.99C219.1 234.99 224.17 229.92 224.17 223.66V190.29C236.74 204.3 267.43 235.2 296.27 235.2C308.68 235.18 320.88 231.99 331.7 225.93C341.55 231.63 352.66 234.82 364.04 235.2C385.67 235.2 402.36 223.25 412.24 201.62C413.64 203.63 415.15 205.56 416.77 207.39C424.28 216.19 435.28 221.24 446.85 221.19C450.69 221.18 454.5 220.62 458.18 219.54C456.78 222.56 455.13 225.45 453.24 228.19C438.2 251.06 414.72 262.18 381.35 262.18C375.09 262.18 370.02 267.25 370.02 273.51C370.02 279.77 375.09 284.84 381.35 284.84C422.55 284.84 453.04 270.01 472.2 240.55C485.59 219.95 493.42 192.55 495.89 157.33C496.3 152.44 496.51 147.7 496.51 143.17ZM57.7302 202.7C52.3002 205.17 46.6402 207.1 40.8402 208.47H35.0702L33.6302 208.06H33.2202L32.6002 207.65H31.7802L30.9602 206.62H30.7502C30.7502 206.41 30.7502 206.41 30.5402 206.41C30.3402 205.81 30.2702 205.18 30.3302 204.56C30.8302 202.08 32.1402 199.84 34.0402 198.17L35.6902 196.93H36.3102L36.9302 196.52L38.1702 195.7L41.6702 193.85L42.7002 193.23L45.1702 191.99L46.6102 191.37L49.0802 190.34L50.3202 189.93L53.2002 188.9L54.0202 188.49L58.1402 187.46H58.5502L62.0502 186.64L63.4902 186.23L66.1702 185.61H67.4102L70.9102 185.2H71.5302L80.1802 184.38H91.1002L89.4502 185.62C79.5602 192.49 68.9202 198.23 57.7302 202.7ZM331.3 198.17C327.77 194.82 324.91 190.84 322.85 186.43C317.49 174.48 317.7 159.24 323.67 149.97C325.95 145.85 330.3 143.32 335 143.38C340.15 143.38 344.06 144.82 346.33 147.5C348.6 150.18 349.83 155.95 349.83 159.65C349.84 175.72 342.01 188.9 331.3 198.17Z" fill="black"/>
<path d="M219.65 263.06C218.51 263.05 217.59 263.97 217.58 265.11C217.58 265.18 217.58 265.25 217.59 265.33V276.04L209.35 264.5C208.88 263.68 208.03 263.14 207.08 263.06H206.67C205.53 263.05 204.61 263.97 204.6 265.11C204.6 265.18 204.6 265.25 204.61 265.33V282.02C204.5 283.15 205.32 284.16 206.45 284.28C206.52 284.29 206.59 284.29 206.67 284.29C207.84 284.18 208.73 283.2 208.73 282.02V270.9L217.18 282.85C217.67 283.62 218.53 284.09 219.45 284.09H219.66C220.8 284.1 221.72 283.18 221.73 282.04C221.73 281.97 221.73 281.9 221.72 281.82V265.34C221.83 264.21 221.01 263.2 219.88 263.08C219.79 263.06 219.72 263.06 219.65 263.06Z" fill="black"/>
<path d="M240.45 279.95H231.8V275.62H239.22C240.36 275.62 241.28 274.7 241.28 273.56C241.28 272.42 240.36 271.5 239.22 271.5H231.8V267.38H240.45C241.51 267.27 242.31 266.38 242.3 265.32C242.41 264.3 241.68 263.39 240.66 263.27C240.59 263.26 240.52 263.26 240.44 263.26H229.73C228.48 263.26 227.46 264.27 227.46 265.53V281.8C227.46 283.05 228.47 284.07 229.73 284.07H240.44C241.58 284.07 242.5 283.15 242.5 282.01C242.62 280.99 241.89 280.07 240.88 279.95C240.75 279.93 240.6 279.93 240.45 279.95Z" fill="black"/>
<path d="M260.02 263.27H247.66C246.52 263.27 245.6 264.2 245.61 265.34C245.61 266.47 246.53 267.39 247.66 267.39H251.78V281.81C251.78 283.25 252.6 284.28 253.84 284.28C255.08 284.28 255.9 283.25 255.9 281.81V267.39H260.02C261.16 267.39 262.08 266.47 262.08 265.33C262.08 264.19 261.16 263.27 260.02 263.27Z" fill="black"/>
<path d="M291.33 263.06C290.36 263.11 289.53 263.77 289.27 264.71L285.36 277.48L281.45 264.71C281.25 263.74 280.38 263.04 279.39 263.06H278.98C277.99 263.04 277.12 263.73 276.92 264.71L273 277.48L269.09 264.71C268.89 263.74 268.02 263.04 267.03 263.06C265.78 263.06 264.76 264.07 264.76 265.33C264.76 265.54 264.97 265.95 264.97 266.15L270.53 282.42C270.94 283.66 271.56 284.27 272.59 284.27H273.21C274.24 284.27 274.86 283.65 275.27 282.42L279.18 270.47L282.89 282.42C283.09 283.51 284.05 284.29 285.16 284.27H285.57C286.68 284.29 287.63 283.5 287.84 282.42L293.2 266.15C293.36 265.91 293.44 265.62 293.41 265.33C293.4 264.15 292.5 263.17 291.33 263.06Z" fill="black"/>
<path d="M306.78 262.85C300.98 262.85 296.27 267.55 296.27 273.35C296.27 273.42 296.27 273.49 296.27 273.56C296.16 279.25 300.67 283.95 306.36 284.06C306.43 284.06 306.5 284.06 306.57 284.06C312.37 284.06 317.08 279.36 317.08 273.56C317.08 273.49 317.08 273.42 317.08 273.35C317.19 267.66 312.68 262.96 306.99 262.85C306.92 262.85 306.85 262.85 306.78 262.85ZM312.55 273.77C312.78 277.06 310.3 279.92 307.01 280.14C306.94 280.15 306.86 280.15 306.79 280.15C303.38 280.04 300.7 277.19 300.81 273.78C300.81 273.71 300.82 273.63 300.82 273.56C300.21 270.32 302.34 267.19 305.59 266.58C308.83 265.97 311.96 268.1 312.57 271.35C312.71 272.08 312.71 272.83 312.57 273.56V273.77H312.55Z" fill="black"/>
<path d="M330.68 263.27H324.09C322.84 263.27 321.82 264.28 321.82 265.54V281.81C321.45 283 322.11 284.28 323.31 284.65C324.51 285.02 325.78 284.36 326.15 283.16C326.29 282.72 326.29 282.25 326.15 281.81V277.28H329.65L333.77 283.05C334.2 283.79 334.98 284.26 335.83 284.29C336.97 284.3 337.89 283.38 337.9 282.24C337.9 282.17 337.9 282.1 337.89 282.02C337.89 281.4 337.48 280.99 337.07 280.37L334.19 276.46C336.69 275.35 338.25 272.81 338.1 270.07C338.38 266.55 335.75 263.48 332.23 263.2C331.71 263.16 331.19 263.18 330.68 263.27ZM333.77 270.48C333.79 272.07 332.51 273.38 330.92 273.39C330.77 273.39 330.62 273.38 330.48 273.36H326.15V267.39H330.48C332.54 267.39 333.78 268.42 333.78 270.27V270.48H333.77Z" fill="black"/>
<path d="M352.72 272.33L358.08 266.97C358.63 266.52 358.94 265.83 358.9 265.12C358.91 264.06 358.1 263.17 357.05 263.06C356.35 263.08 355.68 263.38 355.2 263.88L347.37 272.33V265.33C347.37 264.08 346.36 263.06 345.1 263.06C343.96 263.05 343.04 263.97 343.03 265.11C343.03 265.18 343.03 265.25 343.04 265.33V281.81C343.04 283.25 343.86 284.28 345.1 284.28C346.35 284.29 347.37 283.27 347.38 282.02C347.38 281.95 347.38 281.88 347.37 281.8V277.68L349.64 275.21L355.2 283.04C355.82 283.66 356.23 284.28 357.05 284.28C358.3 284.28 359.32 283.27 359.32 282.01C359.28 281.41 359.06 280.84 358.7 280.36L352.72 272.33Z" fill="black"/>
</svg>
