<?xml version="1.0" encoding="UTF-8"?>
<svg width="96px" height="96px" viewBox="0 0 96 96" version="1.1" xmlns="http://www.w3.org/2000/svg" xmlns:xlink="http://www.w3.org/1999/xlink">
    <!-- Generator: Sketch 47.1 (45422) - http://www.bohemiancoding.com/sketch -->
    <title>app-icon-blockstack</title>
    <desc>Created with Sketch.</desc>
    <defs>
        <path d="M95.999961,65.7247662 C95.999961,65.7247662 96.0232126,75.730443 94.9338578,80.0672019 C93.8445029,84.4039607 91.8441178,87.4275899 89.6274369,89.6438243 C87.4009115,91.8699015 84.451431,93.8940598 79.9555336,94.9486507 C75.4597299,96.0032415 65.704571,95.9846807 65.704571,95.9846807 L30.2647711,95.9999606 C30.2647711,95.9999606 20.2574077,96.0233022 15.9200522,94.9341207 C11.582603,93.8448456 8.55849249,91.8447788 6.34190527,89.6284507 C4.11537989,87.4022797 2.09099316,84.4532687 1.03623441,79.9581806 C-0.0185243266,75.4630925 3.94272736e-05,65.7094863 3.94272736e-05,65.7094863 L3.94272736e-05,30.2752334 C3.94272736e-05,30.2752334 -0.0233058995,20.2695565 1.06614268,15.9327977 C2.15549751,11.5960388 4.15588262,8.57250341 6.3725636,6.356269 C8.59908898,4.130098 11.5485694,2.10593974 16.0443731,1.05134888 C20.5402705,-0.0032419821 30.2953357,0.015318817 30.2953357,0.015318817 L65.7352294,3.89672428e-05 C65.7352294,3.89672428e-05 75.7425928,-0.0232089024 80.0799482,1.06597254 C84.4173975,2.15515398 87.4414142,4.1552207 89.6580014,6.37154885 C91.8845268,8.59771985 93.9090073,11.5467309 94.963766,16.0418189 C96.0185248,20.5370008 95.999961,30.2905132 95.999961,30.2905132 L95.999961,65.7247662 Z" id="path-1"></path>
    </defs>
    <g id="Symbols" stroke="none" stroke-width="1" fill="none" fill-rule="evenodd">
        <g id="about" transform="translate(-672.000000, -272.000000)">
            <g id="section-about">
                <g id="Group-3" transform="translate(540.000000, 272.000000)">
                    <g id="app-icon-blockstack" transform="translate(132.000000, 0.000000)">
                        <mask id="mask-2" fill="white">
                            <use xlink:href="#path-1"></use>
                        </mask>
                        <use id="Fill-1" fill="#00CF98" xlink:href="#path-1"></use>
                        <g id="blockstack-bug-squared" mask="url(#mask-2)">
                            <rect id="Rectangle" fill="#270F34" x="0" y="0" width="96" height="96"></rect>
                            <path d="M36.6204366,55.3728213 C38.8308321,56.7505709 40.3039748,59.1912727 40.3039748,61.9808408 C40.3039748,66.28716 36.8016836,69.7785491 32.4817368,69.7785491 C31.954349,69.7785491 31.4405888,69.7240388 30.9431816,69.6259201 C32.1451353,70.3754377 33.5596794,70.8156089 35.0818814,70.8156089 C39.403191,70.8156089 42.9041194,67.3242198 42.9041194,63.0179006 C42.9041194,59.2362437 40.2031306,56.0855444 36.6204366,55.3728213" id="Fill-6" fill="#2C96FF"></path>
                            <path d="M30.9431816,69.6257838 C30.9459072,69.6257838 30.9499954,69.6257838 30.9527209,69.6271466 C27.3645759,68.9185118 24.6594988,65.7650869 24.6594988,61.9807045 C24.6594988,60.8141826 24.9238741,59.7117104 25.383124,58.7168962 C23.3744169,60.1287147 22.0579914,62.4549447 22.0579914,65.0905211 C22.0579914,69.398203 25.5616454,72.8882294 29.8815922,72.8882294 C31.9311821,72.8882294 33.7913484,72.0951036 35.1868139,70.8100216 C35.1513821,70.8100216 35.1173132,70.8154726 35.0818814,70.8154726 C33.5596794,70.8154726 32.1451353,70.3753014 30.9431816,69.6257838" id="Fill-16" fill="#E91E63"></path>
                            <path d="M32.4818628,69.8278604 C36.8019544,69.8278604 40.304363,66.3253708 40.304363,62.0053602 C40.304363,57.6853495 36.8019544,54.1828599 32.4818628,54.1828599 C28.1617712,54.1828599 24.6593625,57.6853495 24.6593625,62.0053602 C24.6593625,66.3253708 28.1617712,69.8278604 32.4818628,69.8278604" id="Fill-18" fill="#FEFEFE"></path>
                            <path d="M36.6204366,24.1823968 C38.8308321,25.5601464 40.3039748,28.0008482 40.3039748,30.7904163 C40.3039748,35.0967355 36.8016836,38.5881247 32.4817368,38.5881247 C31.954349,38.5881247 31.4405888,38.534977 30.9431816,38.4354956 C32.1451353,39.1850132 33.5596794,39.6251844 35.0818814,39.6251844 C39.403191,39.6251844 42.9041194,36.1337953 42.9041194,31.8274761 C42.9041194,28.0458192 40.2031306,24.8951199 36.6204366,24.1823968" id="Fill-20" fill="#2C96FF"></path>
                            <path d="M30.9431816,38.4354956 C30.9459072,38.4354956 30.9499954,38.4354956 30.9527209,38.4368584 C27.3645759,37.7282236 24.6594988,34.5747987 24.6594988,30.7904163 C24.6594988,29.6238944 24.9238741,28.5214222 25.383124,27.5279707 C23.3744169,28.9384265 22.0579914,31.2646565 22.0579914,33.9002329 C22.0579914,38.2079148 25.5616454,41.6979412 29.8815922,41.6979412 C31.9311821,41.6979412 33.7913484,40.9061781 35.1868139,39.6197334 C35.1513821,39.6197334 35.1173132,39.6251844 35.0818814,39.6251844 C33.5596794,39.6251844 32.1451353,39.1850132 30.9431816,38.4354956" id="Fill-26" fill="#E91E63"></path>
                            <path d="M32.4818628,38.6387987 C36.8019544,38.6387987 40.304363,35.136003 40.304363,30.8156148 C40.304363,26.4952267 36.8019544,22.9937982 32.4818628,22.9937982 C28.1617712,22.9937982 24.6593625,26.4952267 24.6593625,30.8156148 C24.6593625,35.136003 28.1617712,38.6387987 32.4818628,38.6387987" id="Fill-34" fill="#FEFEFE"></path>
                            <path d="M67.9112964,24.1823968 C70.1216919,25.5601464 71.5961974,28.0008482 71.5961974,30.7904163 C71.5961974,35.0967355 68.0925434,38.5881247 63.7725967,38.5881247 C63.2465716,38.5881247 62.7314486,38.534977 62.2340415,38.4354956 C63.4359951,39.1850132 64.8505392,39.6251844 66.3727413,39.6251844 C70.6940508,39.6251844 74.196342,36.1337953 74.196342,31.8274761 C74.196342,28.0458192 71.4939905,24.8951199 67.9112964,24.1823968" id="Fill-36" fill="#2C96FF"></path>
                            <path d="M62.2340415,38.4354956 C62.236767,38.4354956 62.2408553,38.4354956 62.2449436,38.4368584 C58.6567985,37.7282236 55.9503587,34.5747987 55.9503587,30.7904163 C55.9503587,29.6238944 56.2147339,28.5214222 56.6753466,27.5279707 C54.6652767,28.9384265 53.3488513,31.2646565 53.3488513,33.9002329 C53.3488513,38.2079148 56.8525053,41.6979412 61.172452,41.6979412 C63.2234047,41.6979412 65.0822083,40.9061781 66.4776737,39.6197334 C66.442242,39.6197334 66.408173,39.6251844 66.3727413,39.6251844 C64.8505392,39.6251844 63.4359951,39.1850132 62.2340415,38.4354956" id="Fill-40" fill="#E91E63"></path>
                            <path d="M63.7720413,38.6387987 C68.0917566,38.6387987 71.5952228,35.136003 71.5952228,30.8156148 C71.5952228,26.4952267 68.0917566,22.9937982 63.7720413,22.9937982 C59.452326,22.9937982 55.9502224,26.4952267 55.9502224,30.8156148 C55.9502224,35.136003 59.452326,38.6387987 63.7720413,38.6387987" id="Fill-50" fill="#FEFEFE"></path>
                            <path d="M67.9112964,55.3728213 C70.1216919,56.7505709 71.5961974,59.1912727 71.5961974,61.9808408 C71.5961974,66.28716 68.0925434,69.7785491 63.7725967,69.7785491 C63.2465716,69.7785491 62.7314486,69.7240388 62.2340415,69.6259201 C63.4359951,70.3754377 64.8505392,70.8156089 66.3727413,70.8156089 C70.6940508,70.8156089 74.196342,67.3242198 74.196342,63.0179006 C74.196342,59.2362437 71.4939905,56.0855444 67.9112964,55.3728213" id="Fill-52" fill="#2C96FF"></path>
                            <path d="M62.2340415,69.6257838 C62.236767,69.6257838 62.2408553,69.6257838 62.2449436,69.6271466 C58.6567985,68.9185118 55.9503587,65.7650869 55.9503587,61.9807045 C55.9503587,60.8141826 56.2147339,59.7117104 56.6753466,58.7168962 C54.6652767,60.1287147 53.3488513,62.4549447 53.3488513,65.0905211 C53.3488513,69.398203 56.8525053,72.8882294 61.172452,72.8882294 C63.2234047,72.8882294 65.0822083,72.0951036 66.4776737,70.8100216 C66.442242,70.8100216 66.408173,70.8154726 66.3727413,70.8154726 C64.8505392,70.8154726 63.4359951,70.3753014 62.2340415,69.6257838" id="Fill-62" fill="#E91E63"></path>
                            <path d="M63.7720413,69.8278604 C68.0917566,69.8278604 71.5952228,66.3253708 71.5952228,62.0053602 C71.5952228,57.6853495 68.0917566,54.1828599 63.7720413,54.1828599 C59.452326,54.1828599 55.9502224,57.6853495 55.9502224,62.0053602 C55.9502224,66.3253708 59.452326,69.8278604 63.7720413,69.8278604" id="Fill-64" fill="#FEFEFE"></path>
                        </g>
                    </g>
                </g>
            </g>
        </g>
    </g>
</svg>