<svg width="339" height="40" viewBox="0 0 339 40" fill="none" xmlns="http://www.w3.org/2000/svg">
<g clip-path="url(#clip0)">
<path d="M158.933 20.1409V32.1146H163.575L163.668 24.9683L163.76 17.8219H168.379L168.472 20.2333L168.564 22.737H173.23V17.6556L175.456 17.748L177.683 17.8404L177.775 24.9867L177.868 32.1331H182.51V8.16724H177.849V12.8098H173.23V17.4293H168.61V12.8098H163.575V8.19033H158.933V20.1409Z" fill="white"/>
<path d="M202.739 10.5786V12.8883H198.12V27.3796H202.739V31.9991H216.847V27.3796H221.49V12.9022H216.847V8.16724H202.739V10.5786ZM216.653 20.1409V27.1948L209.691 27.2872L202.73 27.3796V12.9022L209.691 12.9946L216.653 13.087V20.1409Z" fill="white"/>
<path d="M236.803 20.1409V32.1146H241.423V17.6325L243.654 17.7249L245.881 17.8173L245.973 20.2333L246.065 22.737H250.685V27.3796H255.304V31.9991H259.947V8.16724H255.364V22.6354L253.138 22.543L250.911 22.4506L250.837 19.9561L250.745 17.5401H246.125V12.9207H241.441V8.16724H236.822L236.803 20.1409Z" fill="white"/>
<path d="M275.598 20.1409V32.1146H299.157V27.3796L289.876 27.2872L280.596 27.1948L280.504 24.9683L280.411 22.7417H294.519V17.7249H280.425L280.517 15.4983L280.61 13.2718L289.89 13.1794L299.171 13.087V8.16724H275.612L275.598 20.1409Z" fill="white"/>
<path d="M314.299 10.5786V12.8883H323.765V32.0176H328.384L328.477 22.5523L328.569 13.087L333.396 12.9946L338.127 12.9022V8.16724H314.207V10.5786H314.299Z" fill="white"/>
<path d="M10.9943 2.30974L12.2924 0.734497H38.7435L40.231 2.12034V21.439L38.1892 22.737H13.1285L11.4563 21.9009L10.8096 19.4895L10.9943 2.30974Z" fill="white"/>
<path d="M54.8933 2.30974L56.099 0.734497H82.6424L84.1299 2.12034V21.439L82.0881 22.737H57.0275L55.3598 21.9009L54.7085 19.4895L54.8933 2.30974Z" fill="white"/>
<path d="M99.3508 2.30974L100.649 0.734497H127.192L128.68 2.12034V21.439L126.546 22.737H101.577L99.9051 21.9009L99.166 19.4895L99.3508 2.30974Z" fill="white"/>
<path d="M112.438 25.9891L115.21 28.7608V36.1982L114.471 36.9373C114.24 37.1313 114.054 37.373 113.926 37.6457C113.797 37.9184 113.729 38.2157 113.727 38.5171C113.727 39.538 114.471 40 116.499 40C119.095 40 119.838 38.7943 118.346 37.1267C117.607 36.2906 117.607 36.1058 117.607 33.6898V31.0937L118.531 32.0175C118.831 32.2704 119.077 32.582 119.252 32.9331C119.428 33.2842 119.53 33.6674 119.552 34.0594C119.593 34.6531 119.784 35.2267 120.106 35.727C120.568 36.1889 120.758 36.2859 121.404 36.0042C122.79 35.4498 124.282 33.6944 124.282 32.7705C124.282 32.0268 123.358 31.3847 122.241 31.3847C121.404 31.3847 121.035 31.1075 119.469 29.5369L117.621 27.6891V23.199C114.849 23.199 112.05 22.737 109.269 22.737L112.438 25.9891Z" fill="white"/>
<path d="M99.1661 24.3169C98.33 24.5941 98.2422 24.5941 94.5466 22.0903C92.5048 20.7045 90.7402 19.4896 90.7402 19.3972C91.8219 18.4782 92.9708 17.6413 94.1771 16.8934V16.8934L96.3113 15.4059L97.517 14.5698L97.7941 14.385L98.6302 13.8307V10.8604L96.958 11.9737L96.8656 12.0661L95.101 13.1794L92.0152 15.2443C89.0495 17.2861 88.5829 17.748 88.3196 18.3994C88.179 18.8377 88.1476 19.3038 88.2281 19.757C88.3086 20.2103 88.4986 20.637 88.7815 21.0001C90.143 22.0848 91.5633 23.0934 93.0361 24.0213C96.5653 26.4326 96.8425 26.6174 96.8425 27.4535C96.8425 28.8394 98.4178 29.6801 99.4387 28.7516C100.275 28.1049 101.203 26.3402 101.203 25.518C101.393 24.4832 100.372 23.9473 99.1661 24.3169Z" fill="white"/>
<path d="M134.062 14.385C138.33 17.263 138.981 17.8219 139.166 18.5425C139.307 18.9809 139.338 19.447 139.258 19.9002C139.177 20.3534 138.987 20.7802 138.704 21.1433C137.336 22.2481 135.908 23.2768 134.426 24.2245C130.897 26.6359 130.62 26.8253 130.62 27.6568C130.62 29.0426 129.04 29.888 128.019 28.9595C127.188 28.3081 126.259 26.5435 126.259 25.7258C126.259 24.5201 127.28 23.878 128.486 24.34C129.322 24.6172 129.41 24.6172 133.105 22.1134C135.147 20.7276 136.907 19.5126 136.907 19.4202C135.683 18.4037 134.391 17.4715 133.041 16.6301L129.146 14.0339V10.9528L134.062 14.385Z" fill="white"/>
<path d="M68.0723 25.9892L70.844 28.7608V36.1982L70.1141 36.9558C69.8835 37.1498 69.6976 37.3915 69.5692 37.6642C69.4408 37.937 69.373 38.2342 69.3704 38.5356C69.3704 39.5565 70.1141 40.0185 72.1421 40.0185C74.7428 40.0185 75.482 38.8128 73.9899 37.1452C73.2461 36.3091 73.2461 36.1243 73.2461 33.7083V31.0937L74.17 32.0176C74.4694 32.2712 74.7143 32.5829 74.8898 32.9338C75.0652 33.2848 75.1677 33.6677 75.1909 34.0594C75.2314 34.6547 75.4221 35.23 75.7453 35.7316C76.2072 36.1936 76.3966 36.2906 77.0433 36.0088C78.4292 35.4545 79.9213 33.6991 79.9213 32.7752C79.9213 32.0314 78.9974 31.3893 77.8795 31.3893C77.0433 31.3893 76.6738 31.1122 75.1078 29.5415L73.26 27.6937V23.2036C70.4883 23.2036 67.7859 22.9265 65.0928 22.9265L68.0723 25.9892Z" fill="white"/>
<path d="M54.8008 24.3169C53.9647 24.5941 53.8769 24.5941 50.1813 22.0903C48.1395 20.7045 46.3795 19.4896 46.3795 19.3972C47.4605 18.4793 48.6077 17.6425 49.8118 16.8934V16.8934L51.9506 15.4059L53.1239 14.5698L53.4011 14.385L54.2372 13.8307V10.8604L52.662 12.0661L52.5696 12.1585L50.8142 13.2717L47.7515 15.3136C44.7812 17.3554 44.3192 17.8219 44.0559 18.4686C43.9154 18.907 43.884 19.3731 43.9645 19.8263C44.045 20.2795 44.2349 20.7063 44.5179 21.0694C45.8827 22.1687 47.3077 23.1912 48.7863 24.1321C52.3109 26.5435 52.5927 26.7283 52.5927 27.5644C52.5927 28.9502 54.1679 29.791 55.1888 28.8625C56.025 28.2157 56.9535 26.4511 56.9535 25.6288C57.0274 24.4832 56.0065 23.9473 54.8008 24.3169Z" fill="white"/>
<path d="M89.7883 14.385C94.0613 17.263 94.7081 17.8219 94.8697 18.5426C95.0111 18.9808 95.0429 19.447 94.9624 19.9004C94.8819 20.3538 94.6914 20.7806 94.4078 21.1433C93.0429 22.2426 91.6179 23.2651 90.1394 24.206C86.6147 26.6174 86.333 26.8068 86.333 27.6383C86.333 29.0241 84.7577 29.8695 83.7368 28.941C82.9007 28.2896 81.9722 26.525 81.9722 25.7074C81.9722 24.5017 82.9931 23.8596 84.1988 24.3215C85.0349 24.5987 85.1227 24.5987 88.8413 22.0949C90.8831 20.7091 92.6478 19.4942 92.6478 19.4018C91.4122 18.3909 90.1096 17.4649 88.7489 16.6301L84.8455 14.0293V10.9528L89.7883 14.385Z" fill="white"/>
<path d="M24.2662 25.9891L27.0379 28.7608V36.1982L26.3311 36.9558C26.1005 37.1498 25.9146 37.3915 25.7862 37.6642C25.6578 37.9369 25.59 38.2342 25.5874 38.5356C25.5874 39.5565 26.3311 40.0185 28.3591 40.0185C30.9552 40.0185 31.699 38.8128 30.2069 37.1452C29.4631 36.309 29.4631 36.1243 29.4631 33.7083V31.0936L30.387 32.0175C30.6886 32.2705 30.9352 32.5826 31.1116 32.9346C31.288 33.2866 31.3904 33.6709 31.4125 34.064C31.4538 34.6577 31.6444 35.2314 31.9669 35.7316C32.4288 36.1935 32.6182 36.2906 33.2696 36.0088C34.6554 35.4544 36.1429 33.699 36.1429 32.7751C36.1429 32.0314 35.219 31.3893 34.1011 31.3893C33.2696 31.3893 32.8954 31.1121 31.3294 29.5415L29.4816 27.6937V23.2036C26.7099 23.2036 23.7257 22.5522 20.9448 22.5522L24.2662 25.9891Z" fill="white"/>
<path d="M10.9943 24.3169C10.1582 24.5941 10.0704 24.5941 6.37485 22.0903C4.33304 20.7045 2.57302 19.4896 2.57302 19.3972C3.65317 18.4783 4.80045 17.6414 6.00529 16.8934V16.8934L8.13948 15.4059L9.34979 14.5698L9.62695 14.385L10.4585 13.8307V10.8604L8.77697 12.0661L8.68458 12.1585L6.92918 13.2717L3.84799 15.3136C0.877675 17.3554 0.411108 17.8219 0.13394 18.4779C-0.00542518 18.9164 -0.0361972 19.3822 0.04427 19.8352C0.124737 20.2883 0.314036 20.715 0.595887 21.0787C1.96157 22.1769 3.38651 23.1993 4.86428 24.1414C8.39355 26.5527 8.67072 26.7375 8.67072 27.5736C8.67072 28.9595 10.2506 29.8002 11.2715 28.8763C12.103 28.225 13.0315 26.4603 13.0315 25.6427C13.1285 24.4832 12.2 23.9473 10.9943 24.3169Z" fill="white"/>
<path d="M45.8898 14.385C50.1582 17.263 50.8095 17.8219 50.9712 18.5426C51.1117 18.9809 51.1431 19.447 51.0626 19.9002C50.9821 20.3534 50.7922 20.7802 50.5092 21.1433C49.1444 22.2426 47.7194 23.2651 46.2408 24.206C42.7116 26.6174 42.4344 26.8068 42.4344 27.6383C42.4344 29.0241 40.8592 29.8695 39.8383 28.941C39.0899 28.2896 38.166 26.525 38.166 25.7074C38.166 24.5017 39.1869 23.8596 40.3926 24.3215C41.2287 24.5987 41.3165 24.5987 45.0121 22.0949C47.0539 20.7091 48.8185 19.4942 48.8185 19.4018C47.5834 18.3904 46.2807 17.4644 44.9197 16.6301L40.9285 14.0339V10.9528L45.8898 14.385Z" fill="white"/>
<path d="M37.7227 23.2036H13.5906C12.7378 23.1882 11.9242 22.8426 11.3211 22.2394C10.718 21.6363 10.3723 20.8228 10.3569 19.97V3.23363C10.3723 2.38084 10.718 1.56727 11.3211 0.96416C11.9242 0.361045 12.7378 0.0154121 13.5906 2.18497e-09H37.7227C38.5755 -3.13269e-05 39.3938 0.336846 39.9995 0.937288C40.6051 1.53773 40.949 2.35311 40.9563 3.20591V20.0485C40.9575 20.4624 40.8771 20.8725 40.7195 21.2552C40.562 21.638 40.3304 21.9858 40.0382 22.2789C39.7459 22.572 39.3987 22.8046 39.0165 22.9633C38.6342 23.1219 38.2244 23.2036 37.8105 23.2036H37.7227ZM13.5906 1.11329C13.0339 1.10464 12.4965 1.31721 12.0964 1.70434C11.6963 2.09147 11.4661 2.62153 11.4564 3.1782V20.0485C11.4502 20.6036 11.6638 21.1386 12.0507 21.5367C12.4376 21.9348 12.9662 22.1637 13.5213 22.1735H37.7227C38.2794 22.1821 38.8167 21.9695 39.2169 21.5824C39.617 21.1953 39.8472 20.6652 39.8569 20.1086V3.23363C39.8655 2.67695 39.653 2.13958 39.2658 1.73946C38.8787 1.33934 38.3486 1.10916 37.792 1.09943H13.5906V1.11329Z" fill="black"/>
<path d="M35.9579 19.0276H15.4475C15.1513 19.0264 14.8673 18.9092 14.6566 18.7011C14.4459 18.4929 14.3251 18.2105 14.3203 17.9143V5.2893C14.3203 4.98994 14.4389 4.70276 14.6502 4.49065C14.8614 4.27853 15.1481 4.15875 15.4475 4.15753H36.0318C36.326 4.16113 36.6071 4.27957 36.8151 4.48758C37.0231 4.69559 37.1415 4.97668 37.1451 5.27082V18.0159C37.0983 18.2975 36.9535 18.5534 36.7362 18.7385C36.519 18.9236 36.2433 19.026 35.9579 19.0276V19.0276ZM15.4475 4.73497C15.3036 4.74469 15.1682 4.80622 15.0663 4.90815C14.9644 5.01007 14.9029 5.14549 14.8931 5.2893V18.0159C14.9029 18.1598 14.9644 18.2952 15.0663 18.3971C15.1682 18.499 15.3036 18.5606 15.4475 18.5703H36.0318C36.1794 18.565 36.3199 18.5056 36.4264 18.4033C36.5329 18.3011 36.598 18.1632 36.6093 18.0159V5.2893C36.598 5.14208 36.5329 5.00416 36.4264 4.9019C36.3199 4.79964 36.1794 4.74021 36.0318 4.73497H15.4475Z" fill="black"/>
<path d="M81.6214 23.2036H57.4939C56.6411 23.1882 55.8275 22.8426 55.2244 22.2394C54.6213 21.6363 54.2757 20.8228 54.2603 19.97V3.23363C54.2757 2.38084 54.6213 1.56727 55.2244 0.96416C55.8275 0.361045 56.6411 0.0154121 57.4939 0L81.6214 0C82.4749 0.013106 83.2898 0.357999 83.8934 0.961604C84.497 1.56521 84.8419 2.3801 84.855 3.23363V20.0485C84.8345 20.8924 84.4848 21.6949 83.8806 22.2844C83.2764 22.874 82.4656 23.2039 81.6214 23.2036V23.2036ZM57.4939 1.11329C57.2179 1.1084 56.9436 1.15793 56.6867 1.25906C56.4298 1.36019 56.1953 1.51093 55.9967 1.70268C55.7981 1.89444 55.6392 2.12344 55.5291 2.37661C55.419 2.62978 55.3599 2.90216 55.3551 3.1782V20.0485C55.3489 20.6044 55.5632 21.1401 55.951 21.5383C56.3389 21.9366 56.8687 22.1649 57.4246 22.1735H81.6214C82.1781 22.1821 82.7154 21.9695 83.1156 21.5824C83.5157 21.1953 83.7459 20.6652 83.7556 20.1086V3.23363C83.7642 2.67695 83.5517 2.13958 83.1645 1.73946C82.7774 1.33934 82.2473 1.10916 81.6907 1.09943H57.4939V1.11329Z" fill="black"/>
<path d="M79.7644 19.0276H59.2539C58.9601 19.0229 58.6797 18.904 58.472 18.6963C58.2642 18.4885 58.1454 18.2081 58.1406 17.9143V5.2893C58.1406 4.99231 58.2573 4.70721 58.4656 4.49548C58.6738 4.28376 58.957 4.16238 59.2539 4.15753H79.8568C80.1365 4.16599 80.4016 4.28499 80.5938 4.48846C80.786 4.69194 80.8897 4.9633 80.8823 5.24311C80.8801 5.25222 80.8801 5.26171 80.8823 5.27082V18.0159C80.8787 18.1541 80.8479 18.2901 80.7915 18.4163C80.7352 18.5424 80.6545 18.6562 80.554 18.7511C80.4536 18.846 80.3354 18.9201 80.2062 18.9691C80.077 19.0181 79.9394 19.0412 79.8013 19.0368L79.7644 19.0276ZM59.2539 4.73497C59.1101 4.74469 58.9747 4.80622 58.8728 4.90815C58.7708 5.01007 58.7093 5.14549 58.6996 5.2893V18.0159C58.7093 18.1598 58.7708 18.2952 58.8728 18.3971C58.9747 18.499 59.1101 18.5606 59.2539 18.5703H79.8568C80.0011 18.5607 80.1371 18.4993 80.2397 18.3975C80.3424 18.2956 80.4049 18.1602 80.4157 18.0159V5.2893C80.4049 5.14508 80.3424 5.00961 80.2397 4.90777C80.1371 4.80593 80.0011 4.74457 79.8568 4.73497H59.2539Z" fill="black"/>
<path d="M125.987 23.2036H101.855C101.002 23.1882 100.188 22.8426 99.5853 22.2394C98.9821 21.6363 98.6365 20.8228 98.6211 19.97V3.23363C98.6365 2.38084 98.9821 1.56727 99.5853 0.96416C100.188 0.361045 101.002 0.0154121 101.855 0L125.987 0C126.84 0.0154121 127.653 0.361045 128.256 0.96416C128.859 1.56727 129.205 2.38084 129.22 3.23363V20.0485C129.2 20.8924 128.85 21.6949 128.246 22.2844C127.642 22.874 126.831 23.2039 125.987 23.2036ZM101.855 1.11329C101.298 1.10464 100.761 1.31721 100.361 1.70434C99.9604 2.09147 99.7302 2.62153 99.7205 3.1782V20.0485C99.7143 20.6036 99.928 21.1386 100.315 21.5367C100.702 21.9348 101.23 22.1637 101.785 22.1735H125.987C126.544 22.1821 127.081 21.9695 127.481 21.5824C127.881 21.1953 128.111 20.6652 128.121 20.1086V3.23363C128.13 2.67695 127.917 2.13958 127.53 1.73946C127.143 1.33934 126.613 1.10916 126.056 1.09943H101.855V1.11329Z" fill="black"/>
<path d="M124.222 19.0276H103.619C103.325 19.0229 103.045 18.904 102.837 18.6963C102.629 18.4885 102.511 18.2081 102.506 17.9143V5.2893C102.506 4.99231 102.623 4.70721 102.831 4.49548C103.039 4.28376 103.322 4.16238 103.619 4.15753H124.222C124.516 4.16229 124.796 4.28111 125.004 4.48887C125.212 4.69663 125.331 4.97705 125.335 5.27082V18.0159C125.295 18.2872 125.162 18.5362 124.959 18.7206C124.756 18.905 124.496 19.0135 124.222 19.0276V19.0276ZM103.619 4.73497C103.475 4.74469 103.34 4.80622 103.238 4.90815C103.136 5.01007 103.075 5.14549 103.065 5.2893V18.0159C103.075 18.1598 103.136 18.2952 103.238 18.3971C103.34 18.499 103.475 18.5606 103.619 18.5703H124.222C124.366 18.5607 124.502 18.4993 124.605 18.3975C124.708 18.2956 124.77 18.1602 124.781 18.0159V5.2893C124.77 5.14508 124.708 5.00961 124.605 4.90777C124.502 4.80593 124.366 4.74457 124.222 4.73497H103.619Z" fill="black"/>
</g> 
</svg>
