<svg height='300px' width='300px'  fill="#49c10e" xmlns="http://www.w3.org/2000/svg" xmlns:xlink="http://www.w3.org/1999/xlink" version="1.1" x="0px" y="0px" viewBox="0 0 1024 1024" style="enable-background:new 0 0 1024 1024;" xml:space="preserve"><g><path d="M850.3,204.3l62,62c14.9,14.9,14.9,39,0,53.9L412.8,819.7c-14.9,14.9-39,14.9-53.9,0L112.4,573.2   c-14.9-14.9-14.9-39,0-53.9l62-62c14.9-14.9,39-14.9,53.9,0l157.5,157.5l410.6-410.6C811.3,189.4,835.4,189.4,850.3,204.3z"></path><g><path d="M836.2,218.4c19.6,19.6,39.3,39.3,58.9,58.9c1,1,2,2,3,3c0.1,0.1,0.1,0.1,0.2,0.2c0.2,0.2,0.8,0.9,1,1.1    c2,1.9-0.5,0.7-0.4-0.7c-0.1,0.6,1.9,2.9,2.3,3.5c0-0.1,1.4,2.3,1.3,2.5c0.1-0.3-1.4-3.9-0.4-1c0.5,1.5,1,3,1.3,4.6    c1.1,4.9,0.2-2.8,0.1,0.8c0,1.6-0.1,3.2,0,4.8c0.1,2.1,0.2-1.8,0.3-1.9c-0.4,0.8-0.5,2.4-0.7,3.3c-0.3,1.2-0.6,3.8-1.5,4.6    c-0.1,0.1,1.9-3.6,0.6-1.6c-0.5,0.8-0.9,1.7-1.4,2.4c-0.5,0.8-3.1,3.8-1.3,2c2.1-2.1-0.9,0.8-1.3,1.2c-1.4,1.5-2.9,2.9-4.4,4.4    c-10.3,10.3-20.7,20.7-31,31c-18,18-36.1,36.1-54.1,54.1c-23.4,23.4-46.8,46.8-70.2,70.2c-26.1,26.1-52.3,52.3-78.4,78.4    c-26.5,26.5-53,53-79.5,79.5c-24.5,24.5-49,49-73.5,73.5c-19.9,19.9-39.8,39.8-59.7,59.7c-12.8,12.8-25.5,25.5-38.3,38.3    c-3,3-6,6-9,9c-0.5,0.5-1,1-1.5,1.5c-0.2,0.2-0.4,0.4-0.6,0.6c-0.5,0.5-2.7,2.8-0.7,0.8c1.7-1.7,0.3-0.2-0.3,0.2    c-0.7,0.4-4.6,2.1-4.9,2.8c0.1-0.3,4.6-1.6,1-0.4c-0.7,0.2-1.3,0.4-2,0.6c-1.4,0.4-3.4,0.4-4.7,1.1c0.2-0.1,4.1-0.3,1.9-0.3    c-0.7,0-1.4,0.1-2,0.1c-0.9,0-1.8-0.1-2.7,0c-2.8,0,0.3-0.2,1.3,0.3c-1.3-0.6-3.3-0.7-4.7-1.1c-0.9-0.3-1.7-0.6-2.6-0.9    c-2.2-0.7,1.7,0.6,1.6,0.7c-0.7,0.3-3.5-1.9-4.3-2.4c-0.3-0.2-1.5-1.2-1.7-1.2c2,1.5,2.4,1.8,1.3,0.9c-0.4-0.3-0.7-0.6-1.1-1    c-0.3-0.3-0.7-0.7-1-1c-1.4-1.3-2.7-2.7-4-4c-6.2-6.2-12.4-12.4-18.6-18.6c-22-22-43.9-43.9-65.9-65.9    c-26.4-26.4-52.8-52.8-79.2-79.2c-20.5-20.5-41.1-41.1-61.6-61.6c-5-5-9.9-9.9-14.9-14.9c-0.5-0.5-0.9-0.9-1.4-1.4    c-0.9-0.9-3.4-3.3-1.7-1.6c1.7,1.7,0.2,0.3-0.2-0.3c-0.5-0.8-1-1.6-1.5-2.4c-0.3-0.6-0.6-1.3-1-1.8c-1.5-2.3,1.1,3.5,0.4,1    c-0.5-1.5-1-3-1.4-4.6c-0.2-0.7-0.2-1.3-0.4-2c-0.6-2.4,0.2,4.9,0.2,0.6c0-1.4,0-2.7,0-4.1c0-3.6-0.9,3.8,0.1-0.8    c0.3-1.6,0.8-3.1,1.3-4.6c0.3-0.9,1.3-2,0-0.2c-1.7,2.5,0.5-0.7,0.9-1.3c0.5-0.9,3.5-4.5,1.6-2.6c-2,1.9,0.9-0.8,1.3-1.2    c0.2-0.2,0.4-0.4,0.6-0.6c1.4-1.4,2.8-2.8,4.1-4.1c5.3-5.3,10.6-10.6,15.8-15.8c11.9-11.9,23.9-23.9,35.8-35.8    c1.5-1.5,3.1-3.1,4.6-4.6c0.3-0.3,0.6-0.6,0.9-0.9c0,0,0.1-0.1,0.1-0.1c0.3-0.2,2.1-2,2.1-2c0.1,0.2-3.4,2.2-0.6,0.5    c1.4-0.9,2.9-1.6,4.2-2.5c1.8-1.1-1.4,0.6-1.6,0.6c0.6,0,1.9-0.7,2.6-0.9c1.5-0.5,3.1-0.7,4.6-1.1c2.2-0.6-2,0.4-1.9,0.3    c0-0.2,3.2-0.1,3.4-0.1c0.7,0,1.4,0,2,0c2,0,1.8,1.1-1.3-0.3c1.2,0.5,2.8,0.5,4,0.9c0.9,0.2,1.7,0.6,2.6,0.8c0.9,0.3,2,1.3,0.2,0    c-2.1-1.5-0.4-0.2,0.1,0.2c1,0.6,2,1.1,3,1.8c0.3,0.2,1.5,1.2,1.7,1.2c-1.4,0.2-2.6-2.3-0.7-0.4c0.3,0.4,0.7,0.7,1.1,1    c0.1,0.1,0.3,0.3,0.4,0.4c0.6,0.6,1.3,1.3,1.9,1.9c2.7,2.7,5.4,5.4,8.1,8.1c22.4,22.4,44.9,44.9,67.3,67.3    c22.8,22.8,45.7,45.7,68.5,68.5c3.8,3.8,7.6,7.6,11.3,11.3c7.6,7.6,20.6,7.7,28.3,0c14.7-14.7,29.5-29.5,44.2-44.2    c34.9-34.9,69.9-69.9,104.8-104.8c41.1-41.1,82.3-82.3,123.4-123.4c33.6-33.6,67.2-67.2,100.8-100.8c9.7-9.7,19.4-19.4,29.2-29.2    c2.3-2.3,4.6-4.6,6.8-6.8c0.4-0.4,0.8-0.8,1.3-1.3c0,0,0,0,0.1-0.1c0.3-0.3,2.6-2.6,1.1-1c3.3-3.4-3.5,2,0.4-0.4    c0.8-0.5,1.6-1,2.4-1.5c0.4-0.2,0.8-0.5,1.2-0.7c2-1,1.6-0.9-1,0.3c1.7-1.8,5.7-1.3,7.9-2.2c-4.1,1.6-2.2,0.3,0.1,0.2    c1.1,0,2.3,0.1,3.4,0.1c2.8,0-4.9-1.2-0.6-0.1c1.3,0.3,2.7,0.6,4,1c0.8,0.2,3.9,2.1,1.5,0.5c-2.6-1.9,1,0.6,1.3,0.9    c1.1,0.6,2.7,1.4,3.5,2.3C832.6,214,835.3,217.6,836.2,218.4c7.5,7.3,20.9,8.1,28.3,0c7.2-7.9,8.1-20.5,0-28.3    c-20-19.2-52.2-23.1-74.9-6c-3.6,2.7-6.8,5.5-9.9,8.7c-7.5,7.5-15,15-22.4,22.4c-31.3,31.3-62.6,62.6-93.9,93.9    c-41.5,41.5-83.1,83.1-124.6,124.6c-37,37-74,74-110.9,110.9c-18.4,18.4-37.5,36.2-55.2,55.2c-0.2,0.3-0.5,0.5-0.8,0.8    c9.4,0,18.9,0,28.3,0c-14.5-14.5-29.1-29.1-43.6-43.6c-26.1-26.1-52.3-52.3-78.4-78.4c-9.3-9.3-18.6-18.6-27.9-27.9    c-9-9-17.6-16.9-30-21.5c-15.8-5.9-35.5-3.4-49.6,5.8c-5.7,3.7-10.3,8.2-15,12.9c-12.1,12.1-24.2,24.2-36.3,36.3    c-9.8,9.8-21.4,19.4-29.1,31.1c-15,22.9-10.1,53.6,8.7,72.6c12.7,12.8,25.5,25.5,38.3,38.3c24.8,24.8,49.6,49.6,74.4,74.4    c26.2,26.2,52.4,52.4,78.6,78.6c16.6,16.6,33.2,33.2,49.8,49.8c8.4,8.4,17.4,15.6,29.1,19.3c20.8,6.5,43.4-0.2,58.6-15.3    c7.7-7.7,15.4-15.4,23.1-23.1c16.5-16.5,33-33,49.5-49.5c22.7-22.7,45.4-45.4,68.1-68.1c26.3-26.3,52.5-52.5,78.8-78.8    c27.3-27.3,54.6-54.6,81.9-81.9c25.5-25.5,51-51,76.5-76.5c21.2-21.2,42.4-42.4,63.6-63.6c14.3-14.3,28.6-28.6,42.9-42.9    c8.2-8.2,18.2-16.7,23.9-27c9.3-16.8,9.5-36.6,1.5-53.9c-3.3-7.3-8.6-13.2-14.2-18.8c-11.6-11.6-23.2-23.2-34.9-34.9    c-8-8-16-16-24-24c-7.4-7.4-21-8-28.3,0C828.8,198.1,828.3,210.5,836.2,218.4z"></path></g></g></svg>