<svg height='300px' width='300px'  fill="#000000" xmlns="http://www.w3.org/2000/svg" xmlns:xlink="http://www.w3.org/1999/xlink" version="1.1" x="0px" y="0px" viewBox="0 0 1200 1200" style="enable-background:new 0 0 1200 1200;" xml:space="preserve"><g><path d="M728.8,772l-98.6,43.9c-1.8-21.8-19-34.8-47-34.8H480.5l-76.7-51c-2-1.3-4.3-2-6.6-2H303v-23.3c0-6.6-5.4-12-12-12h-88.5   c-6.6,0-12,5.4-12,12v229.5c0,6.6,5.4,12,12,12H291c6.6,0,12-5.4,12-12V911h29.6l131,61c17.3,6.9,31.2,10,43.9,10   c23.8,0,43.4-10.9,72.7-28.4l185.7-105.8c12.9-6.9,22.3-17.8,25.9-29.9c3.1-10.3,1.9-20.8-3.4-30.6   C776.6,765.3,752.3,759.3,728.8,772z M279,922.3h-64.5V716.8H279V922.3z M768.9,811c-1.8,6-7,11.7-14.6,15.7L568.2,932.8   c-43.7,26.1-56.7,32.3-95,17.1l-132.8-61.8c-0.1,0-0.1,0-0.2,0c-0.8-0.3-1.6-0.4-2.4-0.6c-0.7-0.2-1.5-0.4-2.2-0.4   c-0.1,0-0.1,0-0.2,0H303V752.1h90.6l76.7,51c2,1.3,4.3,2,6.6,2h106.2c23.4,0,23.4,10.2,23.4,14.5c0,4.3,0,14.5-23.4,14.5h-70.8   c-3.3,0-6.5,1.4-8.8,3.8l-32,34.4c-4.5,4.8-4.3,12.4,0.6,17c2.3,2.2,5.2,3.2,8.2,3.2c3.2,0,6.4-1.3,8.8-3.8l28.5-30.5h65.6   c15.1,0,27.1-3.8,35.3-10.7l120.9-53.9c7.3-3.9,20.6-8.4,28,5.3C769.6,802.9,770.1,806.9,768.9,811z"></path><path d="M997.5,253.7H909c-6.6,0-12,5.4-12,12V289h-29.6l-131-61c-49.5-19.7-71.5-8.6-116.6,18.4L434.1,352.3   c-12.9,6.9-22.3,17.8-25.9,29.9c-3.1,10.3-1.9,20.8,3.4,30.6c7.8,14.3,20.9,21.9,35.5,21.9c7.8,0,16.1-2.1,24.2-6.6l98.6-43.9   c1.8,21.8,19,34.8,47,34.8h102.6l76.7,51c2,1.3,4.3,2,6.6,2H897v23.3c0,6.6,5.4,12,12,12h88.5c6.6,0,12-5.4,12-12V265.7   C1009.5,259.1,1004.2,253.7,997.5,253.7z M806.4,447.9l-76.7-51c-2-1.3-4.3-2-6.6-2H616.8c-23.4,0-23.4-10.2-23.4-14.5   c0-4.3,0-14.5,23.4-14.5h70.8c3.3,0,6.5-1.4,8.8-3.8l32-34.4c4.5-4.9,4.3-12.4-0.6-17c-4.8-4.5-12.4-4.3-17,0.6L682.4,342h-65.6   c-15.1,0-27.1,3.8-35.3,10.6l-121,53.9c-7.3,3.9-20.6,8.5-28-5.3c-2.2-4.1-2.7-8.1-1.5-12.3c1.8-6,7-11.6,14.6-15.7l186.1-106.1   c43.7-26.1,56.7-32.4,95-17.1l132.8,61.8c0.1,0,0.1,0,0.2,0c0.8,0.3,1.6,0.4,2.4,0.6c0.7,0.1,1.5,0.4,2.2,0.4c0.1,0,0.1,0,0.2,0   H897v134.9H806.4z M985.5,483.2H921V277.7h64.5V483.2z"></path><path d="M637.5,446c-86,0-156,70-156,156s70,156,156,156c86,0,156-70,156-156S723.6,446,637.5,446z M637.5,734   c-72.8,0-132-59.2-132-132s59.2-132,132-132c72.8,0,132,59.2,132,132S710.3,734,637.5,734z"></path><path d="M639.5,542c13.2,0,25.6,7.3,34.9,20.7c3.8,5.4,11.3,6.8,16.7,3c5.4-3.8,6.8-11.3,3-16.7c-13.7-19.7-33.6-31-54.6-31   c-31.5,0-58.4,25.2-68.2,60.2h-17.8c-6.6,0-12,5.4-12,12c0,6.6,5.4,12,12,12h14c-0.1,1.7-0.2,3.4-0.2,5.2c0,1.8,0.1,3.5,0.2,5.2   h-14c-6.6,0-12,5.4-12,12c0,6.6,5.4,12,12,12h17.8c9.8,35,36.6,60.2,68.2,60.2c21,0,40.9-11.3,54.6-31c3.8-5.4,2.4-12.9-3-16.7   c-5.4-3.8-12.9-2.5-16.7,3c-9.3,13.3-21.7,20.7-34.9,20.7c-18.8,0-35.1-14.8-43.1-36.2h51.7c6.6,0,12-5.4,12-12c0-6.6-5.4-12-12-12   h-56.6c-0.1-1.7-0.2-3.4-0.2-5.2c0-1.8,0.1-3.5,0.2-5.2h56.6c6.6,0,12-5.4,12-12c0-6.6-5.4-12-12-12h-51.7   C604.4,556.8,620.7,542,639.5,542z"></path></g></svg>