<svg width="421" height="143" viewBox="0 0 421 143" fill="none" xmlns="http://www.w3.org/2000/svg">
<g clip-path="url(#clip0)">
<path d="M227.39 130.58V57.47H251.8V130.58H227.39ZM329.78 130.58L328.06 109.72C327.91 108.19 327.79 106.59 327.72 104.91C327.644 103.036 327.681 101.159 327.83 99.29H327.6C326.99 101.35 326.38 103.23 325.77 104.91C325.101 106.62 324.333 108.289 323.47 109.91L312.82 130.54H302.74L292.08 110C290.346 106.583 288.926 103.015 287.84 99.34H287.61C287.758 101.133 287.795 102.933 287.72 104.73C287.72 106.33 287.65 108.01 287.5 109.73L285.78 130.59H261.48L267.79 57.48H289.79L302.17 81.48C303.01 83.16 303.927 85.16 304.92 87.48C305.913 89.8 306.83 91.9033 307.67 93.79H307.79C308.457 91.79 309.257 89.6867 310.19 87.48C311.19 85.27 312.14 83.28 313.06 81.48L325.32 57.48H347.55L354 130.58H329.78ZM397.27 81.3C397.325 80.548 397.185 79.7945 396.862 79.1128C396.54 78.4312 396.046 77.8446 395.43 77.41C394.362 76.5324 393.032 76.0362 391.65 76H386.38V86.58H391.65C393.011 86.5565 394.331 86.113 395.43 85.31C396.043 84.8444 396.531 84.2349 396.852 83.5354C397.173 82.836 397.317 82.0682 397.27 81.3V81.3ZM420.07 81.3C420.105 84.5607 419.483 87.7951 418.24 90.81C417.052 93.6748 415.266 96.2524 413 98.37C410.675 100.512 407.959 102.186 405 103.3C401.79 104.558 398.367 105.183 394.92 105.14H386.44V130.57H363.12V57.47H394.86C398.306 57.4289 401.728 58.0501 404.94 59.3C407.915 60.4137 410.635 62.1141 412.94 64.3C415.23 66.3616 417.034 68.9062 418.22 71.75C419.461 74.7655 420.083 77.9995 420.05 81.26L420.07 81.3Z" fill="black"/>
<path d="M113.56 40.82L155.13 49.82C160.55 35.19 157.26 18.68 144.13 0.0500031C143.13 16.05 150.98 34.27 113.6 40.87L113.56 40.82ZM105.56 42.28L69.7501 65.28C59.5601 53.47 56.8501 36.86 62.6501 14.79C69.1501 29.43 68.2301 49.24 105.56 42.33V42.28Z" fill="black"/>
<path d="M219 21C222.39 23.9 220.32 60.86 205.06 72.24C199.73 77.24 176.84 82.87 170.56 77.49C165.17 72.87 166.5 49.56 170.3 42.94C178.76 26.17 215.58 18.1 219 21Z" fill="#707070"/>
<path d="M207.32 25.34C196.7 27.23 179 33.69 173.81 44C172.42 46.42 171.42 51.43 171.09 56.68C173.414 59.8667 175.325 63.3342 176.78 67C176.78 66.61 176.78 66.21 176.78 65.82C176.78 65.43 176.57 64.93 176.49 64.49C175.642 59.6933 176.402 54.751 178.65 50.43C178.914 49.6544 179.249 48.9046 179.65 48.19C185.36 36.67 206.68 30 216.42 29C216.24 27 215.87 25.67 215.36 25.23C214.54 24.53 211.47 24.57 207.36 25.31L207.32 25.34Z" fill="black"/>
<path d="M0.210072 60.61C-1.93993 64.52 12.9401 98.41 31.2101 103.72C37.9401 106.49 61.3701 103.78 65.3601 96.54C68.7901 90.32 59.3601 68.96 53.4901 64.1C39.6901 51.34 2.38007 56.68 0.210072 60.61Z" fill="#707070"/>
<path d="M12.6501 60.57C23.2601 58.57 42.0901 58.47 50.5701 66.29C52.7101 68.06 55.4101 72.41 57.5701 77.21C56.5034 80.9978 55.9221 84.9057 55.8401 88.84C55.7201 88.47 55.6001 88.09 55.4701 87.72C55.3401 87.35 55.3501 86.82 55.2701 86.37C54.3769 81.5923 51.9301 77.2435 48.3101 74C47.8112 73.3579 47.2483 72.7682 46.6301 72.24C37.1801 63.52 14.8701 64.71 5.42009 67.24C4.89009 65.32 4.76009 63.93 5.09009 63.34C5.60009 62.34 8.50009 61.34 12.6501 60.59V60.57Z" fill="black"/>
<path d="M127.551 141.005C161.294 134.897 183.967 104.085 178.193 72.1841C172.419 40.2834 140.383 19.3741 106.64 25.4819C72.8973 31.5897 50.2242 62.4017 55.9986 94.3025C61.7729 126.203 93.8081 147.112 127.551 141.005Z" fill="#707070"/>
<path d="M146.12 99.23C147.4 106.23 138.33 120.86 124.35 123.39C110.37 125.92 96.7701 115.39 95.5001 108.39C94.2301 101.39 106.83 106.39 120.81 103.81C134.79 101.23 144.81 92.2 146.12 99.23Z" fill="white"/>
<path d="M136.43 117.61C132.994 120.584 128.822 122.58 124.35 123.389C119.878 124.199 115.271 123.791 111.01 122.21C112.96 120.12 117.6 118.09 123.21 117.07C128.82 116.05 133.88 116.34 136.43 117.61Z" fill="black"/>
<path d="M116.39 125.49C126.39 130.74 133.05 127.41 137.83 119.43C132.26 125.19 125.56 128.29 116.39 125.49Z" fill="black"/>
<path d="M144.661 88.5561C154.313 86.809 160.721 77.5685 158.974 67.9168C157.227 58.265 147.986 51.857 138.335 53.6041C128.683 55.3511 122.275 64.5917 124.022 74.2434C125.769 83.8952 135.01 90.3032 144.661 88.5561Z" fill="white"/>
<path d="M135.153 80.6085C139.631 79.7979 142.605 75.5106 141.794 71.0326C140.983 66.5545 136.696 63.5814 132.218 64.392C127.74 65.2026 124.767 69.4899 125.578 73.9679C126.388 78.446 130.675 81.4191 135.153 80.6085Z" fill="#1A1A1A"/>
<path d="M135.32 69.81C136.231 69.81 136.97 69.0713 136.97 68.16C136.97 67.2487 136.231 66.51 135.32 66.51C134.409 66.51 133.67 67.2487 133.67 68.16C133.67 69.0713 134.409 69.81 135.32 69.81Z" fill="white"/>
<path d="M129.41 56.91C136.97 48.47 144.34 49.27 151.61 55.07C144.38 51.63 137.02 51.07 129.41 56.91Z" fill="black"/>
<path d="M96.396 102.571C109.643 102.331 120.187 91.397 119.947 78.1499C119.706 64.9028 108.772 54.3588 95.5251 54.5993C82.278 54.8398 71.734 65.7736 71.9745 79.0208C72.215 92.2679 83.1488 102.812 96.396 102.571Z" fill="white"/>
<path d="M110.22 84.98C114.771 84.98 118.46 81.2908 118.46 76.74C118.46 72.1892 114.771 68.5 110.22 68.5C105.669 68.5 101.98 72.1892 101.98 76.74C101.98 81.2908 105.669 84.98 110.22 84.98Z" fill="#1A1A1A"/>
<path d="M111.86 74.06C112.771 74.06 113.51 73.3213 113.51 72.41C113.51 71.4987 112.771 70.76 111.86 70.76C110.949 70.76 110.21 71.4987 110.21 72.41C110.21 73.3213 110.949 74.06 111.86 74.06Z" fill="white"/>
<path d="M102.75 54.56C91.3201 49.56 83.5901 53.09 77.8601 61.24C84.4401 55.29 92.2401 52 102.75 54.56Z" fill="black"/>
<path d="M102.35 32.47L108.49 36C108.824 27.9026 107.879 19.8031 105.69 12C105.95 19.81 107.51 28.54 102.35 32.49V32.47Z" fill="black"/>
<path d="M99.6602 33.73L104 39.34C107.399 31.9709 109.609 24.1103 110.55 16.05C107.8 23.36 105.93 32 99.6602 33.73Z" fill="black"/>
<path d="M114.09 36.07L109.59 41.54C106.428 34.0657 104.47 26.1373 103.79 18.05C106.28 25.45 107.88 34.18 114.1 36.05L114.09 36.07Z" fill="black"/>
<path d="M117.06 36.3L115 43.08C109.234 37.3677 104.408 30.7797 100.7 23.56C105.8 29.45 110.6 36.92 117.06 36.3Z" fill="black"/>
</g>
<defs>
<clipPath id="clip0">
<rect width="420.07" height="142.07" fill="white"/>
</clipPath>
</defs>
</svg>
