<svg width="421" height="143" viewBox="0 0 421 143" fill="none" xmlns="http://www.w3.org/2000/svg">
<g clip-path="url(#clip0)">
<path d="M227.387 130.53V57.42H251.797V130.53H227.387ZM329.777 130.53L328.057 109.67C327.907 108.14 327.787 106.54 327.717 104.86C327.641 102.986 327.678 101.109 327.827 99.24H327.597C326.987 101.3 326.377 103.18 325.767 104.86C325.098 106.57 324.33 108.239 323.467 109.86L312.817 130.49H302.737L292.077 109.95C290.343 106.533 288.923 102.965 287.837 99.29H287.607C287.755 101.083 287.792 102.883 287.717 104.68C287.717 106.28 287.647 107.96 287.497 109.68L285.777 130.54H261.477L267.787 57.43H289.787L302.167 81.43C303.007 83.11 303.924 85.11 304.917 87.43C305.911 89.75 306.827 91.8533 307.667 93.74H307.787C308.454 91.74 309.254 89.6367 310.187 87.43C311.187 85.22 312.137 83.23 313.057 81.43L325.317 57.43H347.547L353.997 130.53H329.777ZM397.267 81.25C397.322 80.498 397.182 79.7445 396.859 79.0628C396.537 78.3812 396.043 77.7946 395.427 77.36C394.359 76.4824 393.029 75.9862 391.647 75.95H386.377V86.53H391.647C393.008 86.5065 394.328 86.063 395.427 85.26C396.04 84.7944 396.528 84.1849 396.849 83.4854C397.17 82.786 397.314 82.0182 397.267 81.25V81.25ZM420.067 81.25C420.102 84.5107 419.48 87.7451 418.237 90.76C417.049 93.6248 415.263 96.2024 412.997 98.32C410.672 100.462 407.956 102.136 404.997 103.25C401.787 104.508 398.364 105.133 394.917 105.09H386.437V130.52H363.117V57.42H394.857C398.303 57.3789 401.725 58.0001 404.937 59.25C407.912 60.3637 410.633 62.0641 412.937 64.25C415.227 66.3116 417.031 68.8562 418.217 71.7C419.458 74.7155 420.08 77.9495 420.047 81.21L420.067 81.25Z" fill="white"/>
<path d="M113.557 40.77L155.127 49.77C160.547 35.14 157.257 18.63 144.127 0C143.127 16 150.977 34.22 113.597 40.82L113.557 40.77ZM105.557 42.23L69.7472 65.23C59.5572 53.42 56.8472 36.81 62.6472 14.74C69.1472 29.38 68.2272 49.19 105.557 42.28V42.23Z" fill="white"/>
<path d="M218.997 20.95C222.387 23.85 220.317 60.81 205.057 72.19C199.727 77.19 176.837 82.82 170.557 77.44C165.167 72.82 166.497 49.51 170.297 42.89C178.757 26.12 215.577 18.05 218.997 20.95Z" fill="#DBDADA"/>
<path opacity="0.75" d="M207.317 25.29C196.697 27.18 178.997 33.64 173.807 43.95C172.417 46.37 171.417 51.38 171.087 56.63C173.411 59.8167 175.323 63.2842 176.777 66.95C176.777 66.56 176.777 66.16 176.777 65.77C176.777 65.38 176.567 64.88 176.487 64.44C175.639 59.6433 176.399 54.701 178.647 50.38C178.911 49.6044 179.246 48.8546 179.647 48.14C185.357 36.62 206.677 29.95 216.417 28.95C216.237 26.95 215.867 25.62 215.357 25.18C214.537 24.48 211.467 24.52 207.357 25.26L207.317 25.29Z" fill="white"/>
<path d="M0.207142 60.56C-1.94286 64.47 12.9371 98.36 31.2071 103.67C37.9371 106.44 61.3671 103.73 65.3571 96.49C68.7871 90.27 59.3571 68.91 53.4871 64.05C39.6871 51.29 2.37714 56.63 0.207142 60.56Z" fill="#DBDADA"/>
<path opacity="0.75" d="M12.6472 60.52C23.2572 58.52 42.0872 58.42 50.5672 66.24C52.7072 68.01 55.4072 72.36 57.5672 77.16C56.5005 80.9478 55.9192 84.8557 55.8372 88.79C55.7172 88.42 55.5972 88.04 55.4672 87.67C55.3372 87.3 55.3472 86.77 55.2672 86.32C54.3739 81.5423 51.9271 77.1935 48.3072 73.95C47.8082 73.3079 47.2453 72.7182 46.6272 72.19C37.1772 63.47 14.8672 64.66 5.41716 67.19C4.88716 65.27 4.75716 63.88 5.08716 63.29C5.59716 62.29 8.49716 61.29 12.6472 60.54V60.52Z" fill="white"/>
<path d="M127.548 140.955C161.291 134.847 183.964 104.035 178.19 72.1341C172.416 40.2334 140.38 19.3241 106.637 25.4319C72.8944 31.5397 50.2213 62.3517 55.9957 94.2525C61.77 126.153 93.8051 147.062 127.548 140.955Z" fill="#DBDADA"/>
<path d="M146.117 99.18C147.397 106.18 138.327 120.81 124.347 123.34C110.367 125.87 96.7671 115.34 95.4971 108.34C94.2271 101.34 106.827 106.34 120.807 103.76C134.787 101.18 144.807 92.15 146.117 99.18Z" fill="white"/>
<path d="M136.427 117.56C132.991 120.534 128.819 122.53 124.347 123.339C119.875 124.149 115.268 123.741 111.007 122.16C112.957 120.07 117.597 118.04 123.207 117.02C128.817 116 133.877 116.29 136.427 117.56Z" fill="#707070"/>
<path d="M116.387 125.44C126.387 130.69 133.047 127.36 137.827 119.38C132.257 125.14 125.557 128.24 116.387 125.44Z" fill="white"/>
<path d="M144.658 88.5061C154.31 86.759 160.718 77.5185 158.971 67.8668C157.224 58.215 147.983 51.807 138.332 53.5541C128.68 55.3011 122.272 64.5417 124.019 74.1934C125.766 83.8452 135.007 90.2532 144.658 88.5061Z" fill="white"/>
<path d="M135.151 80.5585C139.629 79.7479 142.602 75.4606 141.791 70.9826C140.981 66.5045 136.693 63.5314 132.215 64.342C127.737 65.1526 124.764 69.4399 125.575 73.9179C126.385 78.396 130.672 81.3691 135.151 80.5585Z" fill="#808080"/>
<path d="M135.317 69.76C136.229 69.76 136.967 69.0213 136.967 68.11C136.967 67.1987 136.229 66.46 135.317 66.46C134.406 66.46 133.667 67.1987 133.667 68.11C133.667 69.0213 134.406 69.76 135.317 69.76Z" fill="white"/>
<path d="M129.407 56.86C136.967 48.42 144.337 49.22 151.607 55.02C144.377 51.58 137.017 51.02 129.407 56.86Z" fill="white"/>
<path d="M96.393 102.521C109.64 102.281 120.184 91.347 119.944 78.0999C119.703 64.8528 108.769 54.3088 95.5222 54.5493C82.275 54.7898 71.7311 65.7236 71.9716 78.9708C72.212 92.2179 83.1459 102.762 96.393 102.521Z" fill="white"/>
<path d="M110.217 84.93C114.768 84.93 118.457 81.2408 118.457 76.69C118.457 72.1392 114.768 68.45 110.217 68.45C105.666 68.45 101.977 72.1392 101.977 76.69C101.977 81.2408 105.666 84.93 110.217 84.93Z" fill="#808080"/>
<path d="M111.857 74.01C112.768 74.01 113.507 73.2713 113.507 72.36C113.507 71.4487 112.768 70.71 111.857 70.71C110.946 70.71 110.207 71.4487 110.207 72.36C110.207 73.2713 110.946 74.01 111.857 74.01Z" fill="white"/>
<path d="M102.747 54.51C91.3172 49.51 83.5872 53.04 77.8572 61.19C84.4372 55.24 92.2372 51.95 102.747 54.51Z" fill="white"/>
<path d="M102.347 32.42L108.487 35.95C108.821 27.8526 107.876 19.7531 105.687 11.95C105.947 19.76 107.507 28.49 102.347 32.44V32.42Z" fill="white"/>
<path d="M99.6572 33.68L103.997 39.29C107.396 31.9209 109.606 24.0603 110.547 16C107.797 23.31 105.927 31.95 99.6572 33.68Z" fill="white"/>
<path d="M114.087 36.02L109.587 41.49C106.425 34.0157 104.467 26.0873 103.787 18C106.277 25.4 107.877 34.13 114.097 36L114.087 36.02Z" fill="white"/>
<path d="M117.057 36.25L114.997 43.03C109.231 37.3177 104.405 30.7297 100.697 23.51C105.797 29.4 110.597 36.87 117.057 36.25Z" fill="white"/>
</g>
<defs>
<clipPath id="clip0">
<rect width="420.07" height="142.07" fill="white"/>
</clipPath>
</defs>
</svg>
