<?xml version="1.0" encoding="utf-8"?>
<!-- Generator: Adobe Illustrator 23.0.1, SVG Export Plug-In . SVG Version: 6.00 Build 0)  -->
<svg version="1.1" id="Layer_1" xmlns="http://www.w3.org/2000/svg" xmlns:xlink="http://www.w3.org/1999/xlink" x="0px" y="0px"
	 viewBox="0 0 300 143" style="enable-background:new 0 0 300 143;" xml:space="preserve">
<style type="text/css">
	.st0{fill:#949494;}
</style>
<title>mit-logo-BW-40</title>
<desc>Created with Sketch.</desc>
<g id="Page-1">
	<g id="mit-logo-BW-40">
		<polyline id="path4336" class="st0" points="190.9,105.2 183.2,105.2 179.2,123.2 175.7,105.2 167.8,105.2 163.9,123.1 
			160.4,105.2 152.5,105.2 159.5,130.8 167.7,130.8 171.5,113.7 175.2,130.8 183.3,130.8 		"/>
		<path id="path4338" class="st0" d="M139.3,109.8c3.1,0,5,2.2,5.1,5.1h-10.5C134.2,112.8,135.7,109.8,139.3,109.8 M152.2,119.6
			v-0.3c0-7.1-3.2-14.8-12.8-14.8c-10,0-13.1,7.6-13.1,14.1c0,8.3,5.1,13.2,12.9,13.2c5.3,0,9.9-2.6,12.7-7.4l-5.7-2.9
			c-0.8,2.1-2.9,4.6-6.5,4.6c-3.5,0-5.8-2.6-5.8-6.1v-0.3"/>
		<polyline id="path4340" class="st0" points="112,105.2 104.3,105.2 100.1,122.5 95.5,105.2 87.5,105.2 95.9,130.8 103.8,130.8 		
			"/>
		<path id="path4342" class="st0" d="M74.5,109.8c3.1,0,5,2.2,5.1,5.1H69.1C69.4,112.8,70.9,109.8,74.5,109.8 M87.4,119.6v-0.3
			c0-7.1-3.2-14.8-12.8-14.8c-10,0-13.1,7.6-13.1,14.1c0,8.3,5.1,13.2,12.9,13.2c5.3,0,9.9-2.6,12.8-7.4l-5.7-2.9
			c-0.8,2.1-2.9,4.6-6.5,4.6c-3.5,0-5.8-2.6-5.8-6.1v-0.3"/>
		<path id="path4344" class="st0" d="M46.5,112h-6.8v-9.4h6.9c1.4,0,5.4,0.1,5.4,4.6C51.9,108.3,51.2,112,46.5,112 M52.8,117
			c3.6-1.5,6.8-3.9,6.8-9.6c0-9.5-8.2-11.2-13.1-11.2H31.9v34.6h7.8v-12.4H45l6.6,12.4h8.9"/>
		<polygon id="path4346" class="st0" points="114.9,100.3 122.4,100.3 122.4,93.6 114.9,93.6 		"/>
		<polygon id="path4348" class="st0" points="114.9,130.8 122.4,130.8 122.4,105.2 114.9,105.2 		"/>
		<path id="path4350" class="st0" d="M208.9,83c-4.4,0-6.2-3.4-6.2-7.6c0-5.3,3-7.5,5.8-7.5c4.1,0,6.4,2.4,6.4,7.8
			C214.9,79.5,213.1,83,208.9,83 M208.5,61.8c-9.6,0-13.5,7-13.5,13.4c0,10.1,7.1,13.7,13.7,13.7c8.6,0,13.8-5.3,13.8-13.6
			C222.6,69.3,219.3,61.8,208.5,61.8"/>
		<polygon id="path4352" class="st0" points="184.2,88.2 191.7,88.2 191.7,53.6 184.2,53.6 		"/>
		<path id="path4354" class="st0" d="M167.2,83c-4.4,0-6.2-3.4-6.2-7.6c0-5.3,3-7.5,5.8-7.5c4.1,0,6.4,2.4,6.4,7.8
			C173.2,79.5,171.4,83,167.2,83 M166.8,61.8c-9.6,0-13.5,7-13.5,13.4c0,10.1,7.1,13.7,13.7,13.7c8.6,0,13.8-5.3,13.8-13.6
			C180.9,69.3,177.6,61.8,166.8,61.8"/>
		<path id="path4356" class="st0" d="M150,88.2V69.8c0-5.2-2.7-7.8-7.9-7.8c-3.6,0-6,1.4-7.2,2.9v-2.3h-7.7v25.6h7.6V73.9
			c0-3.4,0.5-5.9,4-5.9c3,0,3.7,2,3.7,4.4v15.8"/>
		<path id="path4358" class="st0" d="M122.4,88.2V70.7c0-5.4-2.8-8.8-8.1-8.8c-1.5,0-4.5,0.3-7.3,3.4V53.6h-7.6v34.6h7.6V74.7
			c0-4,0.9-6.4,4.1-6.4c3.7,0,3.9,3.4,3.9,6v13.8"/>
		<path id="path4360" class="st0" d="M97,82.2l-5.7-2.9c-0.5,1.6-2,3.8-5,3.8c-4.2,0-5.7-4.5-5.7-7.7c0-3.1,1.4-7.7,5.4-7.7
			c2.9,0,4.3,2.2,5,3.6l5.6-3.2c-3.6-5.7-8.6-6.2-10.9-6.2C80,61.9,73,65.4,73,75.6C73,85.2,79.7,89,85.7,89
			C89.6,89,94.1,87.2,97,82.2"/>
		<path id="path4362" class="st0" d="M57.7,67.2c3.1,0,5,2.2,5.1,5.1H52.3C52.6,70.2,54.1,67.2,57.7,67.2 M70.6,77v-0.3
			c0-7.1-3.2-14.8-12.8-14.8c-10,0-13.1,7.6-13.1,14.1c0,8.3,5.1,13.2,12.9,13.2c5.3,0,9.9-2.5,12.7-7.4l-5.7-2.9
			c-0.8,2.1-2.9,4.6-6.5,4.6c-3.5,0-5.8-2.6-5.8-6.1V77"/>
		<path id="path4364" class="st0" d="M242.7,62.7V65c-1.4-1.3-3.4-2.8-7.1-2.8c-6.1,0-10.6,4.8-10.6,12.5c0,9.9,6.4,12.3,10.6,12.3
			c3.4,0,5-1.1,6.7-2.2v3.5c0,2.9-1.7,4.1-4.5,4.1c-3.9,0-4.6-2-4.6-3.7h-7.8V89c0,5.6,4.8,8.4,11.7,8.4c8.3,0,12.7-3.1,12.7-9.8
			V62.7H242.7L242.7,62.7z M242.3,74.7c0,2.6-0.2,6.7-4.7,6.7c-4.1,0-4.8-3.3-4.8-6.9c0-1.6,0.2-6.6,4.6-6.6
			C241.9,67.9,242.3,71.4,242.3,74.7L242.3,74.7z"/>
		<path id="path4366" class="st0" d="M276.9,62.7h-8L264.6,81l-4.2-18.3h-8l7.4,24c0.4,1.2,0.5,1.8,0.5,2.4c0,0.9-0.5,1.9-2.7,1.9
			h-4v6h6.4c2.3,0,3.8-0.3,5.3-2c1.3-1.4,1.9-3,2.5-4.8"/>
		<polyline id="path4368" class="st0" points="47.4,60.4 48.9,53.6 23.1,53.6 23.1,60.4 31.9,60.4 31.9,88.2 39.7,88.2 39.7,60.4 		
			"/>
		<polygon id="path4370" class="st0" points="71.7,45.6 79.2,45.6 79.2,11 71.7,11 		"/>
		<path id="path4372" class="st0" d="M66.1,45.6V11H54.2L49,35.1L43.7,11H31.9v34.6h7.8c0,0,0-21-0.2-25.9l6.1,25.9h6.7l6.2-25.9
			c-0.2,6.8-0.2,25.9-0.2,25.9"/>
		<polyline id="path4374" class="st0" points="107.4,17.8 107.4,11 82.2,11 82.2,17.8 90.9,17.8 90.9,45.6 98.7,45.6 98.7,17.8 		
			"/>
	</g>
</g>
</svg>
