<svg width="63" height="70" viewBox="0 0 63 70" fill="none" xmlns="http://www.w3.org/2000/svg">
<path d="M21.2119 70C20.2206 70 19.4095 69.1945 19.4095 68.21C19.4095 67.673 19.6799 67.136 20.1305 66.778C27.34 61.6765 36.1717 51.9211 39.2358 43.3291C41.669 36.5272 40.3172 27.6667 31.846 24.3552C29.4128 23.4602 26.7993 23.1918 24.276 23.6392C19.4996 24.5342 15.4442 27.7562 13.5517 32.2312C11.1185 37.8697 7.42361 41.9866 2.64728 44.4926C1.74608 44.9401 0.664649 44.6716 0.214052 43.7766C-0.236546 42.8816 0.0338128 41.8077 0.935008 41.3602C0.935008 41.3602 1.02513 41.3602 1.02513 41.2707C5.0805 39.2122 8.14457 35.7217 10.3074 30.7097C12.6505 25.1607 17.6972 21.1333 23.6451 19.9698C26.7993 19.3433 30.1337 19.7013 33.1978 20.8648C40.6777 23.7288 46.8959 32.3207 42.6603 44.3136C39.416 53.6216 29.9535 64.0035 22.2933 69.463C21.9328 69.9105 21.5724 70 21.2119 70ZM34.6397 67.0465C33.6484 67.0465 32.8373 66.241 32.8373 65.2565C32.8373 64.809 33.0175 64.3615 33.378 64.0035C39.2358 57.9176 43.5615 51.2946 45.5441 45.4771C50.2304 32.1417 43.3813 21.6703 34.2792 18.0903C30.6744 16.7478 26.7993 16.3898 23.0143 17.0163C16.0751 18.2693 10.758 22.1178 7.96433 27.7562L7.87421 27.9352C6.70265 30.3517 5.44098 32.9472 2.82752 33.7527C1.8362 33.9317 0.935007 33.3052 0.664649 32.4102C0.48441 31.5152 0.935007 30.7097 1.74608 30.3517C2.82752 29.9937 3.81883 28.1142 4.62991 26.4137L4.72002 26.2347C8.05445 19.5223 14.2727 15.0473 22.3834 13.5258C26.7993 12.7203 31.3954 13.0783 35.5409 14.7788C46.2651 18.8958 54.2857 31.2467 48.8786 46.6406C46.7157 52.9056 42.0295 59.9761 35.9014 66.42C35.631 66.8675 35.0903 67.0465 34.6397 67.0465ZM14.2727 66.5095C13.2814 66.5095 12.4703 65.7935 12.3802 64.809C12.3802 64.093 12.7407 63.4665 13.3715 63.198C19.9502 59.6181 30.0436 49.0571 32.8373 41.1812C34.91 35.1847 32.2966 31.7837 29.4128 30.6202C25.5376 29.1882 21.302 31.1572 19.8601 34.9162C18.0577 39.1227 12.6505 48.1621 5.62122 51.9211C4.72002 52.3686 3.63859 52.1001 3.18799 51.2051C2.7374 50.3101 3.00775 49.2361 3.90895 48.7886C9.58648 45.7456 14.7233 37.7802 16.5257 33.4842C18.6885 27.8457 25.087 25.0712 30.7646 27.2192C37.3433 29.7252 38.2445 36.7957 36.352 42.2551C33.1978 51.2051 22.5637 62.303 15.0838 66.3305C14.9035 66.42 14.543 66.5095 14.2727 66.5095ZM8.95564 60.2446C7.96433 60.2446 7.15325 59.4391 7.15325 58.4546C7.15325 57.8281 7.51373 57.2016 8.05445 56.8436C9.31612 56.1276 10.3976 55.4116 11.479 54.5166C12.2901 53.9796 13.3715 54.1586 14.0023 54.9641C14.543 55.6801 14.4529 56.7541 13.732 57.3806C12.4703 58.3651 11.2086 59.2601 9.76672 59.9761C9.58648 60.1551 9.226 60.2446 8.95564 60.2446ZM50.0501 57.8281C49.0588 57.8281 48.2477 57.0226 48.2477 56.0381C48.2477 55.6801 48.3379 55.4116 48.5181 55.1431C49.8699 52.8161 51.0414 50.3101 51.9426 47.7146C57.9806 30.6202 48.6082 16.4793 36.8026 11.9148C32.0262 10.0353 26.8894 9.58783 21.9328 10.5723C14.6332 11.9148 8.14457 16.3003 4.17931 22.6548C3.63859 23.4603 2.46704 23.7287 1.65596 23.1918C0.844887 22.6548 0.574529 21.4913 1.11525 20.6858C5.62122 13.6153 12.9209 8.69283 21.2119 7.17134C26.8894 6.09735 32.7472 6.63434 38.0642 8.78233C51.492 13.9733 62.1261 29.8147 55.3672 49.0571C54.3759 51.8316 53.1142 54.5166 51.6723 57.1121C51.3118 57.4701 50.681 57.8281 50.0501 57.8281ZM17.2466 53.6216C16.2553 53.6216 15.4442 52.8161 15.4442 51.8316C15.4442 51.3841 15.6245 50.9366 15.985 50.5786C20.9415 45.3876 24.6364 39.3912 25.8981 35.9007C26.2586 35.0057 27.34 34.5582 28.2412 34.9162C29.1424 35.2742 29.593 36.2587 29.2325 37.1537C27.7005 41.0022 23.8254 47.4461 18.5083 52.9951C18.1478 53.3531 17.6972 53.5321 17.2466 53.6216ZM61.1348 29.7252C60.3237 29.7252 59.6028 29.1882 59.4225 28.3827C56.8091 18.0008 50.2304 10.1248 40.6777 6.18684C30.6744 2.06987 19.3194 2.87536 10.0371 8.42433C9.226 9.05083 8.14457 8.87183 7.51373 8.06633C6.88289 7.26084 7.06313 6.18685 7.87421 5.56035C7.96433 5.47085 8.05445 5.47085 8.14457 5.38135C18.4182 -0.794118 31.0349 -1.68911 42.1196 2.87536C52.7537 7.26084 60.1435 16.0318 62.9372 27.4877C63.2076 28.4722 62.5767 29.4567 61.5854 29.6357C61.4052 29.7252 61.2249 29.7252 61.1348 29.7252Z" fill="#5e2ced"/>
</svg>
