<svg width="62" height="70" viewBox="0 0 62 70" fill="none" xmlns="http://www.w3.org/2000/svg">
<path d="M38.3739 12.895L34.5432 15.5842L56.9943 47.5647L60.8249 44.8755L38.3739 12.895Z" stroke="#5e2ced" stroke-width="1.2" stroke-miterlimit="10" stroke-linecap="round" stroke-linejoin="round"/>
<path d="M32.1429 4.01953L28.3123 6.70874L30.1438 9.31768L33.9744 6.62847L32.1429 4.01953Z" stroke="#5e2ced" stroke-width="1.2" stroke-miterlimit="10" stroke-linecap="round" stroke-linejoin="round"/>
<path d="M36.6963 4.71765L27.4222 11.2283L31.8216 17.495L41.0957 10.9844L36.6963 4.71765Z" stroke="#5e2ced" stroke-width="1.2" stroke-miterlimit="10" stroke-linecap="round" stroke-linejoin="round"/>
<path d="M30.9606 16.2684C25.5394 20.6574 21.0317 25.3832 17.683 29.9914C18.6903 24.1112 22.4024 17.7431 28.2096 12.3496" stroke="#5e2ced" stroke-width="1.2" stroke-miterlimit="10" stroke-linecap="round" stroke-linejoin="round"/>
<path d="M37.4128 5.73833C44.7316 1.74783 52.3539 0.25298 58.4839 1.34827C52.7449 3.00706 46.4701 5.83198 40.1993 9.70754" stroke="#5e2ced" stroke-width="1.2" stroke-miterlimit="10" stroke-linecap="round" stroke-linejoin="round"/>
<path d="M14 31L9 22" stroke="#5e2ced" stroke-width="1.1" stroke-miterlimit="10" stroke-linecap="round" stroke-linejoin="round"/>
<path d="M23 34L30 32" stroke="#5e2ced" stroke-width="1.1" stroke-miterlimit="10" stroke-linecap="round" stroke-linejoin="round"/>
<path d="M22 32L27 26" stroke="#5e2ced" stroke-width="1.1" stroke-miterlimit="10" stroke-linecap="round" stroke-linejoin="round"/>
<path d="M2 26H1" stroke="#5e2ced" stroke-width="1.1" stroke-miterlimit="10" stroke-linecap="round" stroke-linejoin="round"/>
<path d="M11 33L5 29" stroke="#5e2ced" stroke-width="1.1" stroke-miterlimit="10" stroke-linecap="round" stroke-linejoin="round"/>
<path d="M16.9489 36.1045C7.60324 36.1045 0 43.7077 0 53.0526C0 62.3983 7.60324 69.9999 16.9489 69.9999C26.2946 69.9999 33.8962 62.3983 33.8962 53.0526C33.8962 43.7077 26.2946 36.1045 16.9489 36.1045ZM16.9489 68.074C8.665 68.074 1.9259 61.3349 1.9259 53.0526C1.9259 44.7703 8.665 38.032 16.9489 38.032C25.2312 38.032 31.9703 44.7703 31.9703 53.0526C31.9703 61.3349 25.2312 68.074 16.9489 68.074Z" fill="#5e2ced"/>
<path d="M22.6862 57.8487C22.7319 57.5115 22.6546 57.2288 22.4421 56.9566C22.2278 56.6897 21.9522 56.5351 21.5975 56.486C21.2463 56.4386 20.9688 56.5123 20.7265 56.709C19.6974 57.4589 18.5331 57.8329 17.2459 57.8329C15.9341 57.8329 14.7558 57.3324 13.7478 56.3472C12.7345 55.3551 12.2217 54.1653 12.2217 52.8096C12.2217 51.4531 12.7398 50.258 13.7636 49.2579C14.7873 48.2597 15.964 47.7539 17.2616 47.7539C18.5348 47.7539 19.6938 48.127 20.7072 48.8637C20.9951 49.099 21.2725 49.1745 21.6133 49.1341C21.9556 49.0859 22.2278 48.9304 22.4439 48.66C22.6529 48.3939 22.7319 48.0911 22.6844 47.7346C22.6353 47.3754 22.4825 47.1006 22.2174 46.8969C21.2452 46.1556 20.1906 45.6816 19.0787 45.4352V43.2576C19.0787 42.8137 18.7196 42.4546 18.2758 42.4546C17.8319 42.4546 17.4728 42.8137 17.4728 43.2576V45.2367C17.45 45.2365 17.4285 45.2312 17.4056 45.2312C16.7745 45.2373 16.1759 45.3335 15.5939 45.4738V43.2576C15.5939 42.8137 15.2348 42.4546 14.7909 42.4546C14.3471 42.4546 13.988 42.8137 13.988 43.2576V46.0736C13.2777 46.4321 12.6024 46.8769 11.9917 47.4703C10.4709 48.9532 9.72986 50.6892 9.72986 52.7771C9.72986 54.8379 10.492 56.63 11.9934 58.1016C12.6031 58.6992 13.2778 59.145 13.988 59.5026V62.2257C13.988 62.6695 14.3471 63.0287 14.7909 63.0287C15.2348 63.0287 15.5939 62.6695 15.5939 62.2257V60.0965C16.1755 60.233 16.774 60.3248 17.4056 60.3248C17.4283 60.3248 17.4501 60.3196 17.4728 60.3194V62.2257C17.4728 62.6695 17.8319 63.0287 18.2758 63.0287C18.7196 63.0287 19.0787 62.6695 19.0787 62.2257V60.1222C20.176 59.8823 21.2333 59.4262 22.2296 58.7144C22.4737 58.4949 22.6353 58.2017 22.6862 57.8487Z" fill="#5e2ced"/>
</svg>
