<svg width="66" height="70" viewBox="0 0 66 70" fill="none" xmlns="http://www.w3.org/2000/svg">
<path d="M4.805 60.4992C4.14977 60.4992 3.71295 60.936 3.71295 61.5913V62.9017C3.71295 63.5569 4.14977 63.9937 4.805 63.9937C5.46022 63.9937 5.89704 63.5569 5.89704 62.9017V61.5913C5.89704 60.936 5.46022 60.4992 4.805 60.4992Z" fill="#5e2ced"/>
<path d="M4.9142 57.5507H4.69579C2.18409 57.5507 0 59.6256 0 62.2465V65.3042C0 67.8159 2.07488 70 4.69579 70H4.9142C7.4259 70 9.60998 67.9251 9.60998 65.3042V62.2465C9.60998 59.6256 7.5351 57.5507 4.9142 57.5507ZM7.4259 65.3042C7.4259 66.6147 6.33385 67.7067 4.9142 67.7067H4.69579C3.38534 67.7067 2.18409 66.6147 2.18409 65.195V62.1373C2.18409 60.8269 3.27613 59.6256 4.69579 59.6256H4.9142C6.22465 59.6256 7.4259 60.7176 7.4259 62.1373V65.3042Z" fill="#5e2ced"/>
<path d="M64.8674 38.1123C58.752 26.7551 56.1311 25.0078 56.1311 19.9844C56.1311 8.95476 47.1763 0 36.1467 0H31.5601C23.9158 0 16.9267 4.25897 13.5413 11.2481C11.9033 14.6334 11.2481 18.5647 11.7941 22.6053L14.415 41.6069C14.5242 42.1529 15.0702 42.5897 15.6162 42.5897C16.1623 42.4805 16.5991 41.9345 16.5991 41.3885L13.9782 22.2777C13.5413 18.6739 13.9782 15.1794 15.507 12.1217C18.5647 6.00624 24.6802 2.18409 31.5601 2.18409H36.1467C45.975 2.18409 53.947 10.156 53.947 19.9844C53.947 25.7722 57.1139 28.3931 62.0281 37.5663H57.1139C56.4587 37.5663 56.0218 38.0031 56.0218 38.6584V48.5959C56.0218 51.8721 53.4009 54.6022 50.0156 54.6022H41.2793C40.624 54.6022 40.1872 55.039 40.1872 55.6942V64.7582C40.1872 65.4134 40.624 65.8502 41.2793 65.8502C41.9345 65.8502 42.3713 65.4134 42.3713 64.7582V56.7863H50.0156C54.493 56.7863 58.2059 53.1825 58.2059 48.5959V39.7504H63.8846C64.3214 39.7504 64.649 39.532 64.8674 39.2044C65.0858 38.8768 65.0858 38.5491 64.8674 38.1123Z" fill="#5e2ced"/>
<path d="M45.6474 22.8237C45.6474 16.0531 39.7504 10.5928 32.8705 11.3573C27.8471 11.9033 23.5881 15.9438 22.8237 20.9672C22.2777 24.4618 23.3697 27.9563 25.7722 30.5772C29.376 34.5086 28.2839 38.3307 28.5023 39.9688C28.5023 40.4056 28.7208 41.1701 29.4852 41.7161C29.5944 41.8253 29.8128 41.9345 29.922 42.0437C29.5944 44.337 31.014 46.3027 32.9797 46.8487V62.1373C32.9797 63.4477 31.9969 64.4306 30.6864 64.4306H21.2949C19.9844 64.4306 18.8924 63.3385 18.8924 62.0281C18.8924 60.7176 19.9844 59.6256 21.2949 59.6256H23.3697C25.8814 59.6256 27.8471 57.6599 27.8471 55.1482C27.8471 52.6365 25.8814 50.6708 23.3697 50.6708H18.1279C18.0187 50.6708 17.9095 50.5616 17.9095 50.4524V45.8658C17.9095 44.5554 16.8175 43.4633 15.507 43.4633H6.87988C5.13261 43.4633 3.71295 44.883 3.71295 46.6303V55.9126C3.71295 56.5679 4.14977 57.0047 4.805 57.0047C5.46022 57.0047 5.89704 56.5679 5.89704 55.9126V46.6303C5.89704 46.0843 6.33386 45.6474 6.87988 45.6474H15.507C15.6162 45.6474 15.7254 45.7566 15.7254 45.8658V50.4524C15.7254 51.7629 16.8175 52.8549 18.1279 52.8549H23.3697C24.6802 52.8549 25.663 53.8378 25.663 55.1482C25.663 56.4587 24.6802 57.4415 23.3697 57.4415H21.2949C18.7832 57.4415 16.7083 59.5164 16.7083 62.0281C16.7083 64.5398 18.7832 66.6147 21.2949 66.6147H30.6864C33.1981 66.6147 35.1638 64.649 35.1638 62.1373V46.8487C37.1295 46.3027 38.6583 44.4462 38.2215 42.0437C38.4399 41.9345 38.5491 41.8253 38.7676 41.7161C39.6412 41.0609 39.7504 40.4056 39.7504 39.9688C39.9688 38.5492 38.8768 34.3994 42.3713 30.6864C44.5554 28.5023 45.6474 25.663 45.6474 22.8237ZM34.181 30.0312C32.7613 30.0312 31.6693 28.9392 31.6693 27.5195C31.6693 26.0999 32.7613 25.0078 34.181 25.0078C35.6006 25.0078 36.6927 26.0999 36.6927 27.5195C36.6927 28.9392 35.4914 30.0312 34.181 30.0312ZM34.181 44.7738C33.0889 44.7738 32.1061 43.9002 32.1061 42.6989C33.4165 42.9173 35.1638 42.9173 36.2559 42.6989C36.1466 43.9002 35.273 44.7738 34.181 44.7738ZM37.6755 39.8596C37.5663 39.8596 37.1295 40.5148 35.273 40.7332V32.1061C37.3479 31.5601 38.8768 29.7036 38.8768 27.5195C38.8768 24.8986 36.8019 22.8237 34.181 22.8237C31.5601 22.8237 29.4852 24.8986 29.4852 27.5195C29.4852 29.7036 31.014 31.5601 33.0889 32.1061V40.7332C30.6864 40.5148 30.9048 39.9688 30.6864 39.9688C30.468 38.4399 31.6693 33.8534 27.4103 29.1576C25.4446 27.0827 24.571 24.2434 25.0078 21.4041C25.663 17.3635 29.0484 14.0874 33.0889 13.6506C38.7676 12.9953 43.4633 17.4727 43.4633 22.9329C43.4633 25.3354 42.5897 27.6287 40.9516 29.2668C36.6927 33.635 37.7847 38.6584 37.6755 39.8596Z" fill="#5e2ced"/>
<path d="M14.6334 23.0421C14.5242 23.5882 14.961 24.1342 15.6163 24.2434L19.766 24.6802C20.312 24.7894 20.8581 24.3526 20.9673 23.6974C21.0765 23.1513 20.6397 22.6053 19.9844 22.4961L15.8347 22.0593C15.2886 22.0593 14.7426 22.4961 14.6334 23.0421Z" fill="#5e2ced"/>
<path d="M23.2605 14.6334C23.6973 14.1966 23.6973 13.5413 23.2605 13.1045L20.0936 9.9376C19.6568 9.50078 19.0016 9.50078 18.5647 9.9376C18.1279 10.3744 18.1279 11.0296 18.5647 11.4665L21.7317 14.6334C22.0593 15.0702 22.8237 15.0702 23.2605 14.6334Z" fill="#5e2ced"/>
<path d="M30.1404 9.93758C30.6864 9.82838 31.1232 9.17315 30.9048 8.62713L29.7035 4.14975C29.5943 3.60373 28.9391 3.16691 28.3931 3.38532C27.8471 3.49452 27.4103 4.14975 27.6287 4.69577L28.8299 9.17315C28.9391 9.82838 29.4851 10.156 30.1404 9.93758Z" fill="#5e2ced"/>
<path d="M39.532 9.17317L40.7332 4.69579C40.8424 4.14977 40.5148 3.49454 39.9688 3.38533C39.4228 3.27613 38.7675 3.60374 38.6583 4.14977L37.4571 8.62714C37.3479 9.17317 37.6755 9.82839 38.2215 9.9376C38.7675 10.156 39.3136 9.71919 39.532 9.17317Z" fill="#5e2ced"/>
<path d="M48.1591 9.9376L44.9922 13.1045C44.5554 13.5413 44.5554 14.1966 44.9922 14.6334C45.429 15.0702 46.0843 15.0702 46.5211 14.6334L49.688 11.4665C50.1248 11.0296 50.1248 10.3744 49.688 9.9376C49.2512 9.50078 48.596 9.50078 48.1591 9.9376Z" fill="#5e2ced"/>
<path d="M47.2855 23.8066C47.3947 24.3526 47.8315 24.7894 48.3775 24.7894H48.4867L52.6365 24.3526C53.1825 24.2434 53.6193 23.6974 53.6193 23.1513C53.5101 22.6053 52.9641 22.1685 52.4181 22.1685L48.2683 22.6053C47.7223 22.7145 47.2855 23.2605 47.2855 23.8066Z" fill="#5e2ced"/>
</svg>
