<svg width="56" height="70" viewBox="0 0 56 70" fill="none" xmlns="http://www.w3.org/2000/svg">
<path d="M47.7184 44.7593L36.8117 41.1727V36.8652C38.2092 35.5403 39.2414 33.8507 39.7409 31.9652C40.0451 30.8185 40.243 30.0631 40.3728 29.561C41.8536 29.5228 43.078 28.4684 43.2995 27.0327L44.0033 22.6361C44.1554 21.6485 43.869 20.6462 43.2167 19.8857C42.8406 19.4473 42.3659 19.1151 41.8377 18.9095V16.3495C42.4474 16.2368 42.8909 15.6985 42.8788 15.0735C42.7986 10.8659 40.9214 6.96945 37.7039 4.28591L37.7026 3.97982C37.7007 3.58527 37.5162 3.21427 37.2025 2.97436C34.6895 1.05636 31.5624 0 28.3984 0H26.9863C24.2906 0 21.7719 1.33064 19.5618 2.87382C19.5465 2.86491 19.5306 2.85727 19.5141 2.849C19.0801 2.63518 18.5615 2.68482 18.1771 2.97882C14.8775 5.50073 12.6 10.36 12.5096 15.0704C12.5033 15.4115 12.6337 15.7405 12.8717 15.9842C13.0569 16.1732 13.2943 16.2985 13.5507 16.3463V18.9102C13.0225 19.1151 12.5478 19.4473 12.1717 19.8864C11.5201 20.6468 11.2331 21.6491 11.3865 22.6418L12.0826 27.0365C12.3175 28.476 13.545 29.5273 15.0163 29.5616C15.1461 30.0637 15.344 30.8191 15.6482 31.9658C16.1477 33.8514 17.1799 35.5409 18.5774 36.8658V41.1727L7.67073 44.7593C3.22127 45.7094 0 49.7146 0 54.313V68.726C0 69.4285 0.570182 69.9987 1.27273 69.9987L25.3947 70C26.0973 70 26.6675 69.4298 26.6675 68.7273V57.4776H28.7242V68.7254C28.7242 69.4279 29.2944 69.9981 29.9969 69.9981H47.7527C48.4553 69.9981 49.0254 69.4279 49.0254 68.7254C49.0254 68.0228 48.4553 67.4526 47.7527 67.4526H31.2696V57.3052L32.613 52.5363L36.1887 55.027C36.4064 55.1791 36.6609 55.2555 36.9161 55.2555C37.1414 55.2555 37.3673 55.1956 37.569 55.0754C37.9985 54.8183 38.2378 54.3334 38.1799 53.8364L37.4914 47.8927C37.4105 47.1946 36.7774 46.6945 36.0805 46.7746C35.3825 46.8555 34.8816 47.4874 34.9625 48.1855L35.3265 51.3253L29.9205 47.5599L35.7445 43.5031L46.9904 47.201C47.0368 47.2163 47.0839 47.229 47.1323 47.2385C50.442 47.9175 52.8436 50.8938 52.8436 54.3143V68.7273C52.8436 69.4298 53.4138 70 54.1164 70C54.8189 70 55.3891 69.4298 55.3891 68.7273V54.313C55.3891 49.7146 52.1678 45.7094 47.7184 44.7593ZM2.54545 54.313C2.54545 50.8925 4.94709 47.9163 8.25682 47.2373C8.30518 47.2277 8.35227 47.215 8.39873 47.1997L18.3572 43.925L17.8977 47.8921C17.8169 48.5902 18.3177 49.2221 19.0158 49.3029C19.7133 49.3812 20.3458 48.8829 20.4266 48.1848L20.8702 44.3552L25.4685 47.5586L17.7463 52.9378C17.4045 53.1758 17.2009 53.5659 17.2009 53.9821V63.6497C17.2009 64.3523 17.7711 64.9225 18.4736 64.9225C19.1762 64.9225 19.7464 64.3523 19.7464 63.6497V54.6471L22.7767 52.5356L24.122 57.3045V67.4545L2.54545 67.4533V54.313ZM30.4029 50.9963L29.2937 54.9328H26.0979L24.9875 50.9963L27.6945 49.1095L30.4029 50.9963ZM21.1228 41.4298V38.6629L22.7494 39.5303C24.2715 40.3423 25.9897 40.7642 27.7117 40.7642C28.2355 40.7642 28.7605 40.7247 29.2797 40.6458C29.9746 40.5395 30.4519 39.8905 30.3463 39.1962C30.24 38.5019 29.5947 38.0246 28.8966 38.1296C27.2084 38.3867 25.452 38.0864 23.9483 37.2839L22.0379 36.2651C20.1021 35.2323 18.6703 33.4275 18.1096 31.3129C17.3995 28.6325 17.2805 28.1375 17.2639 28.0585C17.1532 27.4546 16.6263 27.0162 16.0122 27.0162H15.0926C14.8413 27.0162 14.6325 26.852 14.5969 26.6318L13.9026 22.2479C13.8492 21.9024 14.007 21.658 14.105 21.5428C14.2094 21.4213 14.441 21.2176 14.8247 21.2176C15.5273 21.2176 16.0975 20.6475 16.0975 19.9449V15.0984C16.0975 14.5046 15.6908 14.0057 15.141 13.8651C15.4764 10.9588 16.7529 8.05509 18.5322 6.10273C18.9318 6.24209 19.3811 6.17336 19.7241 5.91245C21.9017 4.24709 24.4682 2.54545 26.9863 2.54545H28.3984C30.8032 2.54545 33.1806 3.28491 35.1604 4.63909L35.1616 4.90764C35.1635 5.30218 35.3481 5.67318 35.6618 5.91309C38.2639 7.89982 39.9025 10.8074 40.2621 14.0134C39.6983 14.1515 39.2929 14.6586 39.2929 15.2492V19.9455C39.2929 20.6481 39.8631 21.2183 40.5656 21.2183C40.9494 21.2183 41.181 21.4219 41.2854 21.5435C41.384 21.6586 41.5412 21.903 41.4896 22.2415L40.7858 26.6382C40.7521 26.8577 40.544 27.0175 40.2914 27.0175H39.3788C38.7749 27.0175 38.2512 27.4591 38.129 28.0503C38.1105 28.1387 37.9915 28.6338 37.2814 31.3142C36.7207 33.4288 35.2895 35.2342 33.3531 36.2664C32.7326 36.5973 32.4985 37.3679 32.8294 37.9884C33.1106 38.5165 33.7114 38.7615 34.2675 38.619V41.4305L27.6945 46.0072L21.1228 41.4298Z" fill="#5e2ced"/>
<path d="M36.9161 57.7869C36.2135 57.7869 35.6434 58.3571 35.6434 59.0596V63.6351C35.6434 64.3376 36.2135 64.9078 36.9161 64.9078C37.6186 64.9078 38.1888 64.3376 38.1888 63.6351V59.0596C38.1888 58.3564 37.6186 57.7869 36.9161 57.7869Z" fill="#5e2ced"/>
<path d="M29.0284 19.4816L26.901 17.3626C26.5746 17.0374 26.3945 16.6053 26.3945 16.1458C26.3945 15.6864 26.5746 15.2543 26.901 14.9291C27.5781 14.2546 28.6809 14.2539 29.3586 14.9291C29.8569 15.4242 30.6626 15.4236 31.1589 14.9259C31.6546 14.4276 31.6534 13.622 31.1557 13.1256C30.534 12.5065 29.7666 12.1183 28.9628 11.9611V9.75228C28.9628 9.04974 28.3926 8.47955 27.6901 8.47955C26.9876 8.47955 26.4174 9.04974 26.4174 9.75228V12.2386C25.9414 12.4454 25.4946 12.7387 25.1052 13.1263C24.2957 13.9326 23.849 15.0055 23.849 16.1465C23.849 17.2875 24.2951 18.3604 25.1046 19.1666L27.2319 21.2857L29.3586 23.4042C29.6857 23.7294 29.8652 24.1615 29.8652 24.6216C29.8652 25.0816 29.6851 25.5131 29.3586 25.8383C28.6816 26.5128 27.5787 26.5135 26.901 25.8383C26.9004 25.8376 26.8997 25.8376 26.8991 25.837L25.837 24.7794C25.3387 24.283 24.5331 24.2843 24.0374 24.7832C23.541 25.2815 23.5429 26.0871 24.0412 26.5828L25.1033 27.6405C25.1039 27.6411 25.1039 27.6417 25.1046 27.6424C25.4934 28.0299 25.9407 28.3233 26.4167 28.5295V31.0157C26.4167 31.7183 26.9869 32.2885 27.6895 32.2885C28.392 32.2885 28.9622 31.7183 28.9622 31.0157V28.8069C29.7659 28.6491 30.5334 28.2616 31.1551 27.6424C31.9646 26.8361 32.4113 25.7638 32.4113 24.6222C32.4113 23.4806 31.9652 22.4083 31.1557 21.6014L29.0284 19.4816Z" fill="#5e2ced"/>
</svg>
