<svg width="54" height="70" viewBox="0 0 54 70" fill="none" xmlns="http://www.w3.org/2000/svg">
<path d="M45.4853 34.6609L43.7615 32.0752C44.4079 30.9977 44.8389 29.8126 45.1621 28.7352L48.1788 28.1965C48.7175 28.0887 49.0408 27.6578 49.0408 27.1191V21.4088C49.0408 20.8701 48.7175 20.4391 48.1788 20.3314L45.1621 19.7927C44.8389 18.6075 44.4079 17.5301 43.7615 16.345L45.4853 13.8669C45.8085 13.436 45.7008 12.8973 45.3776 12.4663L41.3912 8.37213C41.1757 8.04891 40.637 8.04891 40.206 8.37213L37.6202 10.096C36.5428 9.44954 35.4654 9.01858 34.2803 8.69536L33.7416 5.67861C33.6338 5.1399 33.2028 4.81668 32.6641 4.81668H26.9539C26.4152 4.81668 25.9842 5.1399 25.8765 5.67861L25.3377 8.69536C24.1526 9.01858 23.0752 9.44954 21.9978 10.096L19.5197 8.37213C19.0888 8.04891 18.5501 8.15665 18.1191 8.47988L13.9172 12.3586C13.594 12.6818 13.4862 13.3282 13.8095 13.7592L15.5333 16.345C14.8869 17.4224 14.4559 18.4998 14.1327 19.6849L11.1159 20.2236C10.5772 20.3314 10.254 20.7624 10.254 21.3011C10.4695 25.9339 9.60756 27.7655 11.1159 28.0887L14.1327 28.6274C14.4559 29.8126 14.8869 30.89 15.5333 32.0752L13.7017 34.5532C13.3785 34.9842 13.4862 35.5229 13.8095 35.9538L17.7959 40.048C18.1191 40.3712 18.7655 40.479 19.1965 40.1557L21.7823 38.4319C22.8597 39.0783 23.9371 39.5093 25.1223 39.8325L25.661 42.8493C25.7687 43.388 26.1997 43.7112 26.7384 43.7112H32.4487C32.9874 43.7112 33.4183 43.388 33.5261 42.8493L34.0648 39.8325C35.2499 39.5093 36.3273 39.0783 37.4047 38.4319L39.8828 40.2635C40.3137 40.5867 40.8525 40.479 41.2834 40.1557L45.3776 36.1693C45.8085 35.7384 45.8085 35.0919 45.4853 34.6609ZM43.3305 27.55C43.0073 28.9507 42.4686 30.3513 41.6066 31.6442C41.3912 31.9674 41.3912 32.5061 41.6066 32.8293L43.2228 35.1996L40.4215 38.0009L38.0512 36.3848C37.728 36.1693 37.1893 36.1693 36.866 36.3848C35.5731 37.139 34.2803 37.6777 32.7719 38.0009C32.3409 38.1087 32.0177 38.4319 31.91 38.8628L31.3712 41.6641H27.4926L26.9539 38.8628C26.8461 38.4319 26.5229 38.1087 26.0919 38.0009C24.6913 37.6777 23.2907 37.139 21.9978 36.2771C21.6746 36.0616 21.1358 36.0616 20.8126 36.2771L18.4423 37.8932L15.9643 34.9842L17.5804 32.6139C17.7959 32.2906 17.7959 31.7519 17.5804 31.4287C16.8262 30.1358 16.2875 28.7352 15.9643 27.3346C15.8565 26.9036 15.5333 26.5804 15.1024 26.4726L12.3011 25.9339V22.0552L15.1024 21.5165C15.5333 21.4088 15.8565 21.0856 15.9643 20.7624C16.2875 19.3617 16.9339 17.9611 17.6881 16.6682C17.9036 16.345 17.9036 15.8063 17.6881 15.483L16.072 13.2205L18.8733 10.4192L21.2436 12.0353C21.5668 12.2508 21.9978 12.2508 22.4287 12.0353C23.7216 11.2811 25.1223 10.7424 26.5229 10.4192C26.9539 10.3115 27.2771 9.98825 27.3848 9.55729L27.9235 6.75602H31.8022L32.2332 9.66503C32.3409 10.096 32.6641 10.4192 33.0951 10.527C34.4957 10.8502 35.8964 11.3889 37.0815 12.2508C37.4047 12.4663 37.9434 12.4663 38.2667 12.2508L40.637 10.6347L43.4382 13.436L41.8221 15.8063C41.6066 16.1295 41.6066 16.6682 41.8221 16.9914C42.5763 18.2843 43.115 19.6849 43.4382 21.0856C43.546 21.5165 43.8692 21.8398 44.3002 21.9475L47.1014 22.4862V26.3649L44.3002 26.7958C43.7615 26.7958 43.4382 27.1191 43.3305 27.55Z" fill="#5e2ced"/>
<path d="M37.8357 16.0217C35.6809 13.9747 32.8796 12.6818 29.6474 12.6818C26.5229 12.6818 23.6139 13.9747 21.5668 16.0217C19.5197 18.0688 18.2268 20.9778 18.2268 24.2101C18.2268 27.3345 19.5197 30.2435 21.5668 32.3984C23.6139 34.4454 26.5229 35.7383 29.7551 35.7383C32.8796 35.7383 35.7886 34.4454 37.9434 32.3984C39.9905 30.3513 41.2834 27.4423 41.2834 24.2101C41.2834 20.9778 39.9905 18.1766 37.8357 16.0217ZM37.4047 25.2875H39.0209C38.8054 27.1191 38.1589 28.7352 37.0815 30.0281L35.8964 28.8429C35.4654 28.412 34.819 28.412 34.388 28.8429C33.957 29.2739 33.957 29.9203 34.388 30.3513L35.5731 31.5364C34.2802 32.6139 32.5564 33.2603 30.8325 33.4758V31.8597C30.8325 31.2132 30.4016 30.7823 29.7551 30.7823C29.1087 30.7823 28.6777 31.2132 28.6777 31.8597V33.4758C26.8461 33.2603 25.23 32.6139 23.9371 31.5364L25.1223 30.3513C25.5532 29.9203 25.5532 29.2739 25.1223 28.8429C24.6913 28.412 24.0449 28.412 23.6139 28.8429L22.4287 30.0281C21.3513 28.7352 20.7049 27.0113 20.4894 25.2875H22.1055C22.752 25.2875 23.1829 24.8565 23.1829 24.2101C23.1829 23.5636 22.752 23.1326 22.1055 23.1326H20.4894C20.7049 21.301 21.3513 19.6849 22.4287 18.392L23.6139 19.5772C24.0449 20.0082 24.6913 20.0082 25.1223 19.5772C25.5532 19.1462 25.5532 18.4998 25.1223 18.0688L23.9371 16.8837C25.23 15.8063 26.9539 15.1598 28.6777 14.9443V16.5604C28.6777 17.2069 29.1087 17.6378 29.7551 17.6378C30.4016 17.6378 30.8325 17.2069 30.8325 16.5604V14.9443C32.6641 15.1598 34.2802 15.8063 35.5731 16.8837L34.388 17.9611C33.957 18.392 33.957 19.0385 34.388 19.4694C34.819 19.9004 35.4654 19.9004 35.8964 19.4694L37.0815 18.2843C38.1589 19.5772 38.8054 21.301 39.0209 23.0249H37.4047C36.7583 23.0249 36.3273 23.4559 36.3273 24.1023C36.3273 24.7488 36.7583 25.2875 37.4047 25.2875Z" fill="#5e2ced"/>
<path d="M32.2332 20.1159L30.7248 21.6243C30.4016 21.5165 29.9706 21.4088 29.6474 21.4088C28.139 21.4088 26.8461 22.7017 26.8461 24.2101C26.8461 25.7184 28.139 27.0113 29.6474 27.0113C31.1558 27.0113 32.4487 25.7184 32.4487 24.2101C32.4487 23.8868 32.3409 23.5636 32.2332 23.2404L33.7416 21.732C34.1725 21.301 34.1725 20.6546 33.7416 20.2236C33.4183 19.7927 32.6641 19.7927 32.2332 20.1159ZM29.6474 24.8565C29.3242 24.8565 29.001 24.5333 29.001 24.2101C29.001 23.8868 29.3242 23.5636 29.6474 23.5636C29.9706 23.5636 30.2938 23.8868 30.2938 24.2101C30.2938 24.5333 29.9706 24.8565 29.6474 24.8565Z" fill="#5e2ced"/>
<path d="M48.933 59.2259C45.9163 49.3137 46.3472 41.3409 50.1182 35.3074C56.6904 24.9643 53.0272 13.7592 46.455 7.29473C40.0983 0.938005 28.4622 -3.69486 16.1798 4.0625C8.85336 8.69536 4.86695 16.6682 5.40565 24.4255C5.40565 24.9643 6.5908 26.0417 4.54372 27.7655L4.43598 27.8733C3.68179 28.7352 -0.304623 33.1526 0.0186 36.0616C0.234082 37.0312 0.988269 38.1087 1.74246 38.2164C2.71213 38.3241 3.68179 38.6474 3.89728 38.9706C3.46631 40.3712 3.57405 42.0951 4.65146 43.0647C4.2205 44.0344 4.43598 45.0041 5.40565 45.6505C5.72887 46.4047 6.37532 48.2363 5.62113 48.9905C5.51339 49.0982 5.51339 49.206 5.40565 49.3137C5.40565 49.4215 4.43598 51.4685 5.72887 53.4079C7.88369 56.7479 14.1327 56.5324 18.0113 56.5324C18.2268 56.6401 18.4423 56.7479 18.6578 57.0711C20.2739 58.9027 20.0584 63.751 19.8429 66.2291C19.8429 66.5523 19.9507 66.8755 20.1662 67.091C20.3817 67.3065 23.6139 70 33.2028 70C37.9434 70 44.1924 69.3536 52.3807 67.3065C52.704 67.1987 53.0272 66.9833 53.1349 66.5523C53.2427 66.2291 53.1349 65.7981 52.9194 65.4749C50.1182 62.3504 48.933 59.2259 48.933 59.2259ZM22.1055 65.6904C22.1055 65.2594 22.1055 65.0439 22.1055 65.0439C22.4287 61.0575 21.9978 58.1485 20.8126 56.3169C24.2603 55.9937 26.8461 54.9163 28.57 53.0847C30.9403 50.7144 30.7248 47.9131 30.7248 47.8054C30.7248 47.2666 30.1861 46.7279 29.5396 46.8357C29.0009 46.8357 28.4622 47.3744 28.57 48.0208C28.57 48.1286 28.6777 50.0679 26.9539 51.7918C25.23 53.5156 22.2132 54.4853 18.1191 54.4853C17.7959 54.4853 17.6881 54.4853 17.5804 54.4853C10.254 54.8085 8.09918 53.3001 7.45273 52.3305C6.91402 51.5763 7.12951 50.7144 7.23725 50.3911C8.9611 48.4518 7.66821 44.5731 6.5908 43.9267C6.80628 43.4957 7.34499 43.2802 7.23725 42.526C7.02177 41.5564 6.15984 41.8796 5.83661 41.2331C5.62113 40.6944 5.83662 39.8325 5.94436 39.617C6.15984 39.0783 6.0521 38.3241 5.51339 37.6777C4.65146 36.6003 3.03535 36.2771 2.28116 36.2771C1.63471 35.0919 4.65146 31.1055 6.0521 29.5971C8.4224 27.55 8.20692 25.3952 7.56047 24.2101C7.12951 17.2069 10.9004 10.2037 17.3649 6.00183C28.4622 -1.10907 39.1286 3.20057 44.9466 8.91084C50.8724 14.8366 54.2123 24.9643 48.2866 34.3377C44.1924 40.8022 43.6537 49.4215 46.8859 60.0878C46.8859 60.1956 47.8556 62.7814 50.2259 65.6904C31.2635 69.8923 23.8294 66.66 22.1055 65.6904Z" fill="#5e2ced"/>
</svg>
