<svg width="55" height="68" viewBox="0 0 55 68" fill="none" xmlns="http://www.w3.org/2000/svg">
<path d="M26.7403 67.1134C26.9019 67.1942 27.1443 67.275 27.3059 67.275C27.4674 67.275 27.7098 67.1942 27.8714 67.1134L35.7884 62.9933C47.3409 56.9343 54.5309 45.1395 54.5309 32.0521V10.6436C54.5309 10.1589 54.2078 9.67419 53.7231 9.51262L27.7098 0.0605899C27.4674 -0.0201966 27.1443 -0.0201966 26.9019 0.0605899L0.807866 9.51262C0.323146 9.67419 0 10.1589 0 10.6436V31.9713C0 44.9779 7.19 56.8535 18.7425 62.9125L26.7403 67.1134ZM2.50438 32.0521V11.5323L27.3059 2.48419L52.1073 11.5323V32.0521C52.1073 44.17 45.402 55.2378 34.6574 60.8121L27.3059 64.609L19.9543 60.7313C9.12888 55.157 2.50438 44.17 2.50438 32.0521Z" fill="#5e2ced"/>
<path d="M26.7404 61.62C26.9019 61.7008 27.1443 61.7816 27.3059 61.7816C27.4675 61.7816 27.7098 61.7008 27.8714 61.62L33.6072 58.6309C43.544 53.4605 49.7645 43.2007 49.7645 31.9713V14.0367C49.7645 13.552 49.4414 13.0673 48.9567 12.9057L27.7906 5.15019C27.5482 5.0694 27.2251 5.0694 26.9827 5.15019L5.81665 12.9057C5.33194 13.0673 5.00879 13.552 5.00879 14.0367V31.9713C5.00879 43.2007 11.2294 53.3798 21.1661 58.6309L26.7404 61.62ZM7.3516 32.0521V14.9254L27.3059 7.65457L47.2602 14.9254V32.0521C47.2602 42.3928 41.6051 51.764 32.3954 56.5304L27.3059 59.1964L22.1355 56.5304C13.0067 51.764 7.3516 42.312 7.3516 32.0521Z" fill="#5e2ced"/>
<path d="M25.6901 39.5652C26.0133 39.5652 26.3364 39.4036 26.5788 39.1612L41.5243 23.1655C42.009 22.6808 41.9282 21.8729 41.4435 21.469C40.9588 20.9843 40.1509 21.065 39.747 21.5498L25.6093 36.6568L16.5612 28.3358C16.0765 27.8511 15.2687 27.9319 14.8647 28.4166C14.38 28.9013 14.4608 29.7092 14.9455 30.1131L24.8823 39.242C25.1246 39.4036 25.367 39.5652 25.6901 39.5652Z" fill="#5e2ced"/>
</svg>
