<?xml version="1.0" encoding="utf-8"?>
<!-- Generator: Adobe Illustrator 23.0.1, SVG Export Plug-In . SVG Version: 6.00 Build 0)  -->
<svg version="1.1" id="Layer_1" xmlns="http://www.w3.org/2000/svg" xmlns:xlink="http://www.w3.org/1999/xlink" x="0px" y="0px"
	 viewBox="0 0 575 290" style="enable-background:new 0 0 575 290;" xml:space="preserve">
<style type="text/css">
	.st0{fill-rule:evenodd;clip-rule:evenodd;fill:#949494;}
</style>
<title>observer-logo-BW-40</title>
<desc>Created with Sketch.</desc>
<g id="Page-1">
	<g id="observer-logo-BW-40">
		<path id="Fill-6" class="st0" d="M71.7,144.7c-0.1-12.9-9.9-23-22.2-22.8c-12.4,0.2-21.6,10-21.5,22.9c0.1,13,9.8,22.9,22.2,22.8
			C62.4,167.5,71.7,157.6,71.7,144.7 M49.5,182.4c-22.2,0-38.5-16.1-38.4-37.9C11.1,123.1,28,107,50.1,107
			c21.8,0,38.5,16.2,38.6,37.5C88.8,166.1,71.9,182.4,49.5,182.4"/>
		<path id="Fill-4" class="st0" d="M113,137.2c6.8,0,13,0.4,19.1-0.1c4.6-0.4,6.9-3.5,6.9-7.2c0-3.7-2.4-6.7-7-7.1
			c-6.3-0.5-12.6-0.1-18.9-0.1V137.2z M113,166.6c8,0,15.7,0.2,23.3-0.1c3.2-0.1,5.7-2.1,6.4-5.5c0.6-2.8,0.1-5.6-2.4-7.3
			c-1.5-1.1-3.5-2.1-5.2-2.1c-7.3-0.2-14.6-0.1-22.1-0.1V166.6z M97.2,108.1c5.7,0,11.1-0.1,16.5,0c8.1,0.2,16.4-0.2,24.4,0.9
			c12.7,1.6,19.6,12.4,16.1,23.9c-0.6,2.1-1.9,4-3.2,5.8c-1.2,1.6-2.9,2.8-4.6,4.4c1.2,0.6,2.2,1.2,3.2,1.7c7,3.7,9.9,9.7,9.6,17.4
			c-0.4,7.8-4.3,13.3-11.5,16.2c-2.9,1.2-6.1,2.3-9.2,2.4c-13.6,0.3-27.2,0.1-41.1,0.1V108.1z"/>
		<path id="Fill-17" class="st0" d="M217.9,116.9c-2.6,3.7-5.2,7.5-8,11.6c-2.3-1.2-4.3-2.4-6.4-3.5c-5.1-2.5-10.3-4.4-16.2-3.1
			c-3,0.7-5.5,2.2-5.8,5.5c-0.3,3.3,1.6,5.4,4.6,6.5c1.6,0.6,3.3,1.3,5,1.8c2.3,0.7,4.6,1.2,6.9,1.9c3.3,1.1,6.7,2.1,9.9,3.5
			c7.9,3.4,12.5,9.3,12.4,18.2c-0.1,9.1-3.9,16-12.4,20c-12.1,5.6-34.1,2.8-45.2-9.2c3-3.6,6-7.3,9.1-11c2.7,1.7,5,3.4,7.5,4.8
			c5.3,3,11,4.4,17.1,3.6c1.4-0.2,2.9-0.5,4.1-1.2c4.8-2.5,5.1-8,0.4-10.6c-3-1.7-6.5-2.6-9.8-3.7c-4.5-1.5-9.2-2.6-13.7-4.4
			c-7.5-3-11.7-8.6-12-16.9c-0.3-8.3,2.6-15.1,9.7-19.6C187,104,207.7,106.7,217.9,116.9"/>
		<polygon id="Fill-13" class="st0" points="283.9,166.8 283.9,180.8 229.3,180.8 229.3,108.4 283.8,108.4 283.8,122.3 245.5,122.3 
			245.5,137.2 283.7,137.2 283.7,151.4 245.5,151.4 245.5,166.8 		"/>
		<path id="Fill-11" class="st0" d="M309.7,143.1c0.9,0.2,1.2,0.3,1.5,0.4c4.6,0,9.3,0.1,13.9,0c2-0.1,4.2-0.3,6.1-0.9
			c4.5-1.5,6.9-5.3,6.7-9.9c-0.2-4.5-2.8-8-7.2-9.1c-6.9-1.6-13.9-0.7-21-0.8V143.1z M337.3,180.7c-5-7.4-10.1-15-15.2-22.6h-12.5
			v22.7h-15.9v-71.9c0.5-0.3,0.7-0.6,1-0.6c12.6,0.1,25.3-0.4,37.9,0.5c12.3,0.9,19.6,7.7,21.4,18.5c1.8,11.1-1.5,21.8-13.1,27.1
			c-0.6,0.3-1,0.7-1.7,1.1c5.6,8.3,11.2,16.4,17.1,25.2H337.3z"/>
		<path id="Fill-19" class="st0" d="M356.3,108.3h17.9c6.2,16.7,12.4,33.3,19,50.9c6.6-17.6,12.7-34.2,18.9-50.8h17.4
			c-9.9,24.6-19.5,48.7-29.3,73.1h-14.5C376,157.5,366.3,133.2,356.3,108.3"/>
		<polygon id="Fill-15" class="st0" points="435.9,180.7 435.9,108.5 490.4,108.5 490.4,122.4 452.1,122.4 452.1,137.1 490.4,137.1 
			490.4,151.5 452.1,151.5 452.1,166.7 490.4,166.7 490.4,180.7 		"/>
		<path id="Fill-9" class="st0" d="M516.9,143.4c6.4,0,12.6,0.1,18.7,0c1.2,0,2.5-0.6,3.6-1.1c3.9-1.7,6-5.2,5.8-9.5
			c-0.2-4.5-2.4-7.8-6.6-9c-7.1-2-14.4-0.8-21.6-1V143.4z M563.6,181h-18.8c-5.1-7.5-10.4-15.3-15.6-23h-12.3v22.8H501v-71.9
			c0.3-0.2,0.5-0.5,0.8-0.5c13,0.1,26-0.3,38.8,0.6c11.4,0.8,18.7,8,20.4,17.8c2.2,12.5-1.9,21.5-12.6,27.4
			c-0.6,0.3-1.1,0.7-2.1,1.3C552,163.8,557.5,172,563.6,181L563.6,181z"/>
	</g>
</g>
</svg>
