<svg width="335" height="335" viewBox="0 0 335 335" fill="none" xmlns="http://www.w3.org/2000/svg">
<path d="M75.4934 134.719L182.942 81.4709M75.4934 134.719L17 134.087L75.4934 164.11M75.4934 134.719L147.547 171.277M182.942 297L75.4934 243.752V164.11M182.942 297L290.39 243.752V135.987M182.942 297L182.942 189.236M290.39 135.987L182.942 81.4709M290.39 135.987L319 93.5162L211.552 39L182.942 81.4709M290.39 135.987L218.616 171.556M182.942 81.4709V155.639M182.942 189.236L124.448 189.237L75.4934 164.11M182.942 189.236L147.547 171.277M182.942 189.236L218.616 171.556M182.942 155.639L147.547 171.277M182.942 155.639L218.616 171.556" stroke="url(#paint0_linear)" stroke-width="8" stroke-linecap="round" stroke-linejoin="round"/>
<defs>
<linearGradient id="paint0_linear" x1="319" y1="182" x2="17" y2="176" gradientUnits="userSpaceOnUse">
<stop stop-color="#602CED"/>
<stop offset="1" stop-color="#A485FD"/>
</linearGradient>
</defs>
</svg>
