<svg width="162" height="40" viewBox="0 0 162 40" fill="none" xmlns="http://www.w3.org/2000/svg">
<g clip-path="url(#clip0)">
<path d="M22.4667 11.64C22.4667 6.93333 19.1867 3.64 14.0133 2.97333V0H9.58667V2.85333H0V6.85333H2.26667V27.3733H0V31.3733H10.0933V27.3733H7.06667V20.9333H9.73333V23.7733H14.1333V20.8C19.1867 20 22.4667 16.4667 22.4667 11.64ZM12 16.72H6.94667V6.93333H12C15.5333 6.93333 17.9333 8.78667 17.9333 11.64C17.92 14.7333 15.52 16.72 12 16.72Z" fill="black"/>
<path d="M30.7998 13.6267C29.6114 13.5727 28.4244 13.7598 27.3103 14.1768C26.1962 14.5938 25.1781 15.232 24.3172 16.053C23.4563 16.874 22.7706 17.8608 22.3013 18.9539C21.832 20.047 21.5888 21.2238 21.5864 22.4133C21.5858 23.6098 21.8259 24.7942 22.2924 25.896C22.7589 26.9978 23.4423 27.9945 24.3019 28.8267C25.1615 29.659 26.1798 30.3098 27.2961 30.7404C28.4124 31.171 29.6039 31.3727 30.7998 31.3333C31.9969 31.3803 33.1911 31.1838 34.31 30.7557C35.429 30.3277 36.4494 29.677 37.3095 28.843C38.1696 28.0091 38.8516 27.0093 39.314 25.9041C39.7764 24.7989 40.0097 23.6113 39.9998 22.4133C40.0087 21.2216 39.7737 20.0407 39.3092 18.9432C38.8446 17.8458 38.1604 16.855 37.2986 16.0319C36.4367 15.2088 35.4156 14.5708 34.2979 14.1571C33.1803 13.7435 31.9898 13.563 30.7998 13.6267ZM30.7998 27.6133C29.7774 27.5871 28.7854 27.26 27.948 26.6729C27.1106 26.0858 26.4649 25.2648 26.0917 24.3126C25.7185 23.3605 25.6343 22.3194 25.8498 21.3196C26.0652 20.3198 26.5707 19.4058 27.303 18.6918C28.0352 17.9779 28.9618 17.4957 29.9667 17.3056C30.9716 17.1156 32.0102 17.226 32.9526 17.6232C33.8951 18.0204 34.6994 18.6867 35.2651 19.5387C35.8309 20.3907 36.1328 21.3906 36.1331 22.4133C36.0983 23.8046 35.5211 25.1271 34.5246 26.0987C33.5282 27.0702 32.1914 27.6138 30.7998 27.6133Z" fill="black"/>
<path d="M50.3602 31.3333H42.0269V27.3333H43.9202V17.5867H42.0269V13.5867H48.3469V27.4533H50.3602V31.3333ZM43.0402 7.55999C43.0402 6.75727 43.3591 5.98743 43.9267 5.41982C44.4943 4.8522 45.2641 4.53333 46.0669 4.53333C46.8696 4.53333 47.6394 4.8522 48.207 5.41982C48.7746 5.98743 49.0935 6.75727 49.0935 7.55999C49.0815 7.94526 48.9936 8.32438 48.8349 8.67567C48.6762 9.02696 48.4499 9.34353 48.1688 9.60728C47.8877 9.87104 47.5574 10.0768 47.1967 10.2128C46.8361 10.3488 46.4521 10.4124 46.0669 10.4C45.6767 10.4338 45.2838 10.385 44.9138 10.2568C44.5437 10.1286 44.2049 9.92385 43.9193 9.65588C43.6337 9.38792 43.4078 9.06277 43.2564 8.70164C43.1049 8.34051 43.0312 7.9515 43.0402 7.55999V7.55999Z" fill="black"/>
<path d="M73.8402 27.3733V22.04C73.8402 16.84 70.6802 13.4933 65.8402 13.4933H65.3335C63.5271 13.4969 61.7662 14.0606 60.2935 15.1067V13.6267H54.0269V17.6267H55.9202V27.4133H54.0269V31.4133H62.3469V27.4133H60.3335V19.56C60.8103 18.8638 61.4517 18.2962 62.2007 17.9078C62.9497 17.5193 63.7832 17.322 64.6269 17.3333C65.6547 17.3374 66.6594 17.6383 67.5202 18.2C68.1824 18.6701 68.707 19.3085 69.0398 20.0492C69.3727 20.7899 69.5017 21.6061 69.4135 22.4133V27.3733H67.5202V31.3733H75.7335V27.4933H73.8402V27.3733Z" fill="black"/>
<path d="M88.6 17.5867V13.5867H83.1733V8H78.76V13.5733H76V17.5733H78.7733V23.8933C78.7733 28.4667 80.5333 31.32 84.7067 31.32H88.6133V27.24H85.7067C83.56 27.24 83.1733 26.2533 83.1733 23.9067V17.5867H88.6Z" fill="black"/>
<path d="M135.333 17.4667V13.6267H129.027V15.2267C127.409 14.1835 125.525 13.628 123.6 13.6267C122.412 13.5727 121.225 13.7598 120.111 14.1768C118.997 14.5938 117.978 15.232 117.117 16.053C116.257 16.874 115.571 17.8608 115.102 18.9539C114.632 20.047 114.389 21.2238 114.387 22.4133C114.386 23.6098 114.626 24.7942 115.093 25.896C115.559 26.9978 116.243 27.9945 117.102 28.8267C117.962 29.659 118.98 30.3098 120.096 30.7404C121.213 31.171 122.404 31.3727 123.6 31.3333C125.526 31.328 127.41 30.7679 129.027 29.72V31.3333H135.333V27.3333H133.44V17.5867L135.333 17.4667ZM124 27.8667C123.028 27.8661 122.073 27.6057 121.236 27.1123C120.398 26.619 119.707 25.9106 119.235 25.0607C118.764 24.2107 118.527 23.2501 118.551 22.2782C118.576 21.3063 118.859 20.3585 119.373 19.533C119.886 18.7074 120.611 18.0342 121.472 17.583C122.333 17.1317 123.299 16.9189 124.27 16.9666C125.241 17.0142 126.182 17.3205 126.995 17.8539C127.808 18.3872 128.463 19.1282 128.893 20V24.96C128.416 25.8414 127.71 26.577 126.848 27.0888C125.986 27.6006 125.002 27.8694 124 27.8667V27.8667Z" fill="black"/>
<path d="M149.72 36H151.867V40H142.027V36H144.92L147.587 31.04L140.76 17.4667H139V13.4667H147V17.4667H145.667L149.96 26.2533L154.507 17.4667H153.173V13.4667H161.333V17.4667H159.573L149.72 36Z" fill="black"/>
<path d="M115.266 11.64C115.266 6.93333 111.986 3.64 106.813 2.97333V0H102.386V2.85333H92.7998V6.85333H95.0665V27.3733H92.7998V31.3733H102.893V27.3733H99.8665V20.9333H102.533V23.7733H106.933V20.8C112 20 115.266 16.4667 115.266 11.64ZM104.92 16.72H99.8665V6.93333H104.92C108.453 6.93333 110.853 8.78667 110.853 11.64C110.853 14.7333 108.453 16.72 104.92 16.72V16.72Z" fill="black"/>
</g>
<defs>
<clipPath id="clip0">
<rect width="161.333" height="40" fill="white"/>
</clipPath>
</defs>
</svg>
