<svg width="162" height="40" viewBox="0 0 162 40" fill="none" xmlns="http://www.w3.org/2000/svg">
<g clip-path="url(#clip0)">
<path d="M22.4664 11.6409C22.4664 6.93499 19.1848 3.59133 14.0099 2.97213V0H9.59239V2.84829H0V6.81115H2.27188V27.3684H0V31.3312H10.0972V27.3684H7.06807V20.9288H9.7186V23.7771H14.1361V20.8049C19.1848 19.9381 22.4664 16.4705 22.4664 11.6409ZM11.9905 16.7183H6.94185V6.93499H11.9905C15.5245 6.93499 17.9227 8.79257 17.9227 11.6409C17.9227 14.7368 15.5245 16.7183 11.9905 16.7183Z" fill="white"/>
<path d="M30.7962 13.6223C25.6215 13.6223 21.5825 17.3375 21.5825 22.4149C21.5825 27.4923 25.6215 31.3313 30.7962 31.3313C35.971 31.3313 40.01 27.6161 40.01 22.4149C40.01 17.2136 35.8449 13.4985 30.7962 13.6223ZM30.7962 27.6161C27.8933 27.6161 25.4952 25.2632 25.4952 22.4149C25.4952 19.5665 27.8933 17.2136 30.7962 17.2136C33.6992 17.2136 36.0973 19.5665 36.0973 22.4149C36.0973 25.2632 33.6992 27.6161 30.7962 27.6161Z" fill="white"/>
<path d="M50.3599 31.3312H42.0298V27.3684H43.923V17.5851H42.0298V13.6223H48.3405V27.4923H50.3599V31.3312ZM43.0395 7.55418C43.0395 5.82043 44.4278 4.58203 46.0686 4.58203C47.7094 4.58203 49.0978 5.82043 49.0978 7.55418C49.0978 9.16408 47.7094 10.4025 46.0686 10.4025C44.4278 10.5263 43.0395 9.28792 43.0395 7.55418Z" fill="white"/>
<path d="M73.8359 27.3684V22.0433C73.8359 16.8421 70.6806 13.4984 65.8843 13.4984C65.7582 13.4984 65.6319 13.4984 65.5056 13.4984C65.5056 13.4984 65.5056 13.4984 65.3795 13.4984C63.4863 13.4984 61.7192 14.1176 60.3308 15.1084V13.6223H54.02V17.5852H55.9134V27.3684H54.02V31.3313H62.3503V27.3684H60.3308V19.5665C61.2143 18.2044 62.8552 17.3375 64.6222 17.3375C65.7582 17.3375 66.7679 17.7089 67.5251 18.2044C68.7872 18.9473 69.4184 20.4335 69.4184 22.4148V27.3684H67.5251V31.3313H75.7291V27.4923H73.8359V27.3684Z" fill="white"/>
<path d="M88.6035 17.5852V13.6223H83.1762V8.04956H78.7587V13.6223H75.9819V17.5852H78.7587V23.9009C78.7587 28.4829 80.5257 31.3313 84.6909 31.3313H88.6035V27.2447H85.7006C83.5549 27.2447 83.1762 26.2539 83.1762 23.9009V17.5852H88.6035Z" fill="white"/>
<path d="M135.333 17.4613V13.6223H129.022V15.2323C127.508 14.2415 125.615 13.6223 123.595 13.6223C118.42 13.6223 114.381 17.3375 114.381 22.4149C114.381 27.4923 118.42 31.3313 123.595 31.3313C125.615 31.3313 127.508 30.7121 129.022 29.7213V31.3313H135.333V27.3684H133.44V17.5852L135.333 17.4613ZM123.974 27.8637C120.945 27.8637 118.42 25.3871 118.42 22.4149C118.42 19.4428 120.945 16.966 123.974 16.966C126.119 16.966 128.013 18.2044 128.896 19.9381V24.8916C128.013 26.6255 126.119 27.8637 123.974 27.8637Z" fill="url(#paint0_linear)"/>
<path d="M149.721 36.0372H151.866V40H142.022V36.0372H144.925L147.576 31.0836L140.76 17.4613H138.993V13.4984H147.07V17.4613H145.682L149.973 26.2539L154.517 17.4613H153.256V13.4984H161.333V17.4613H159.566L149.721 36.0372Z" fill="url(#paint1_linear)"/>
<path d="M115.265 11.6409C115.265 6.93499 111.983 3.59133 106.808 2.97213V0H102.391V2.84829H92.7983V6.81115H95.0702V27.3684H92.7983V31.3312H102.896V27.3684H99.8665V20.9288H102.517V23.7771H106.934V20.8049C111.983 19.9381 115.265 16.4705 115.265 11.6409ZM104.915 16.7183H99.8665V6.93499H104.915C108.449 6.93499 110.847 8.79257 110.847 11.6409C110.847 14.7368 108.449 16.7183 104.915 16.7183Z" fill="url(#paint2_linear)"/>
</g>
<defs>
<linearGradient id="paint0_linear" x1="91.5627" y1="22.4768" x2="161.667" y2="22.4768" gradientUnits="userSpaceOnUse">
<stop offset="0.00364583" stop-color="#4F80F4"/>
<stop offset="1" stop-color="#0EE6E7"/>
</linearGradient>
<linearGradient id="paint1_linear" x1="91.9725" y1="26.7492" x2="162.077" y2="26.7492" gradientUnits="userSpaceOnUse">
<stop offset="0.00364583" stop-color="#4F80F4"/>
<stop offset="1" stop-color="#0EE6E7"/>
</linearGradient>
<linearGradient id="paint2_linear" x1="92.5093" y1="15.6656" x2="162.614" y2="15.6656" gradientUnits="userSpaceOnUse">
<stop offset="0.00364583" stop-color="#4F80F4"/>
<stop offset="1" stop-color="#0EE6E7"/>
</linearGradient>
<clipPath id="clip0">
<rect width="161.333" height="40" fill="white"/>
</clipPath>
</defs>
</svg>
