<?xml version="1.0" encoding="utf-8"?>
<!-- Generator: Adobe Illustrator 23.0.1, SVG Export Plug-In . SVG Version: 6.00 Build 0)  -->
<svg version="1.1" id="Calque_1" xmlns="http://www.w3.org/2000/svg" xmlns:xlink="http://www.w3.org/1999/xlink" x="0px" y="0px"
	 viewBox="0 0 491 172" style="enable-background:new 0 0 491 172;" xml:space="preserve">
<style type="text/css">
	.st0{fill:#FFFFFF;}
</style>
<desc>SaTT Logo</desc>
<g>
	<g>
		<g>
			<path class="st0" d="M249.94,109.31c0-3.27-1.07-5.78-3.21-7.52c-2.14-1.74-6.02-3.6-11.65-5.58
				c-11.36-3.69-19.81-7.62-25.33-11.8c-5.52-4.18-8.27-10.18-8.27-18.03c0-7.68,3.21-13.88,9.63-18.63
				c6.42-4.73,14.58-7.11,24.48-7.11c10.45,0,18.86,2.45,25.24,7.33c6.38,4.89,9.47,11.78,9.25,20.67l-0.13,0.38h-20.64
				c0-4.32-1.18-7.46-3.52-9.41c-2.35-1.95-5.9-2.92-10.64-2.92c-3.86,0-6.9,0.95-9.13,2.83c-2.22,1.89-3.33,4.22-3.33,7
				c0,2.68,1.14,4.83,3.43,6.44c2.28,1.62,6.55,3.64,12.81,6.08c10.61,3.14,18.65,6.99,24.1,11.51c5.45,4.53,8.18,10.74,8.18,18.63
				c0,8.06-3.15,14.36-9.44,18.91c-6.29,4.56-14.64,6.84-25.04,6.84c-10.37,0-19.15-2.45-26.34-7.34
				c-7.2-4.89-10.69-12.58-10.49-23.06l0.13-0.38h20.7c0,5.32,1.31,9.12,3.94,11.36c2.62,2.25,6.64,3.37,12.06,3.37
				c4.44,0,7.76-0.88,9.94-2.65C248.85,114.47,249.94,112.17,249.94,109.31z"/>
			<path class="st0" d="M320.87,133.55c-0.8-1.43-1.48-3.04-2.05-4.85c-0.57-1.8-1-3.69-1.3-5.66c-1.84,3.61-4.12,6.5-6.83,8.65
				c-2.7,2.16-6.24,3.25-10.61,3.25c-7.13,0-12.68-1.84-16.64-5.51c-3.97-3.67-5.95-8.68-5.95-15.01c0-6.75,2.54-11.96,7.62-15.63
				c5.07-3.67,12.77-5.51,23.1-5.51h8.74v-4.85c0-2.89-0.69-5.12-2.08-6.67c-1.38-1.55-3.5-2.34-6.35-2.34
				c-2.48,0-4.31,0.58-5.51,1.74c-1.19,1.16-1.79,2.95-1.79,5.38l-20.64-0.06l-0.13-0.38c-0.29-6.21,2.3-11.4,7.78-15.58
				c5.47-4.17,12.71-6.26,21.68-6.26c8.44,0,15.27,2.1,20.49,6.29c5.22,4.2,7.83,10.2,7.83,18v25.68c0,3.62,0.3,6.97,0.91,10.07
				c0.61,3.11,1.52,6.21,2.73,9.32L320.87,133.55z M305.89,119.76c2.6,0,4.9-0.61,6.89-1.83c1.99-1.21,3.39-2.66,4.19-4.34v-9h-8.56
				c-3.4,0-5.85,0.82-7.36,2.45c-1.51,1.64-2.27,3.71-2.27,6.23c0,1.93,0.66,3.5,1.98,4.69
				C302.08,119.17,303.79,119.76,305.89,119.76z"/>
			<path class="st0" d="M411.08,58.33h-24.23v75.28h-21.27V58.33h-23.79V41.97h69.3L411.08,58.33L411.08,58.33z"/>
			<path class="st0" d="M487.83,58.33H463.6v75.28h-21.27V58.33h-23.79V41.97h69.3L487.83,58.33L487.83,58.33z"/>
		</g>
	</g>
</g>
<g>
	<path class="st0" d="M140.02,63.48H44.06c8.02-14.88,24.34-26.21,43.18-26.21c11.7,0,22.43,4.39,30.8,11.33h15.22
		c-11.04-13.89-27.56-21.56-46.02-21.56c-28.85,0-52.96,20.56-58.81,47.35h0.61H73.7v14.88H29.05v10.91H73.7v46.63h10.91v-46.63
		h7.94v46.63h11.9v-46.63h28.52h1.72h8.93c0.82-3.97,1.26-8.47,1.25-12.7C144.87,79.09,143.14,70.43,140.02,63.48z M92.55,89.27
		h-7.94V74.39h7.94V89.27z M104.45,89.27V74.39h28.3c1.15,3.97,1.78,8.81,1.78,13.31c0,0.42-0.01,0.58-0.02,1.58H104.45z"/>
	<path class="st0" d="M86.37,4.22c-45.29,0-82.14,36.85-82.14,82.14s36.85,82.14,82.14,82.14c45.29,0,82.14-36.85,82.14-82.14
		C168.51,41.07,131.66,4.22,86.37,4.22z M86.37,157.03c-38.97,0-70.67-31.7-70.67-70.67c0-38.97,31.7-70.67,70.67-70.67
		s70.67,31.7,70.67,70.67C157.04,125.33,125.34,157.03,86.37,157.03z"/>
</g>
</svg>
