<svg height='300px' width='300px'  fill="#f0368d" xmlns="http://www.w3.org/2000/svg" xmlns:xlink="http://www.w3.org/1999/xlink" viewBox="0 0 24 24" version="1.1" x="0px" y="0px"><title>Time</title><desc>Created with Sketch.</desc><g stroke="none" stroke-width="1" fill="none" fill-rule="evenodd"><path d="M12,23 C5.92486775,23 1,18.0751322 1,12 C1,5.92486775 5.92486775,1 12,1 C18.0751322,1 23,5.92486775 23,12 C23,18.0751322 18.0751322,23 12,23 Z M12,21 C16.9705627,21 21,16.9705627 21,12 C21,7.02943725 16.9705627,3 12,3 C7.02943725,3 3,7.02943725 3,12 C3,16.9705627 7.02943725,21 12,21 Z M12,12.381966 L15.4472136,14.1055728 C15.9411921,14.3525621 16.1414164,14.9532351 15.8944272,15.4472136 C15.6474379,15.9411921 15.0467649,16.1414164 14.5527864,15.8944272 L10.5527864,13.8944272 C10.2140024,13.7250352 10,13.3787721 10,13 L10,7 C10,6.44771525 10.4477153,6 11,6 C11.5522847,6 12,6.44771525 12,7 L12,12.381966 Z" fill="#f0368d" fill-rule="nonzero"></path></g></svg>