<?xml version="1.0" encoding="utf-8"?>
<!-- Generator: Adobe Illustrator 23.0.1, SVG Export Plug-In . SVG Version: 6.00 Build 0)  -->
<svg version="1.1" id="Layer_1" xmlns="http://www.w3.org/2000/svg" xmlns:xlink="http://www.w3.org/1999/xlink" x="0px" y="0px"
	 viewBox="0 0 284 163" style="enable-background:new 0 0 284 163;" xml:space="preserve">
<style type="text/css">
	.st0{fill:#949494;}
</style>
<title>wsj-logo-40g</title>
<desc>Created with Sketch.</desc>
<g id="Page-1">
	<g id="wsj-logo-40g">
		<path id="Shape" class="st0" d="M39.7,36.1c-2.3-10.7-2.9-12.5-6.3-13.4l-2.5-0.7v-2.5h32v2.5l-2.7,0.5c-5.8,1.3-5.2,7.1-3.6,14.9
			l14.3,71.2l10.5-56.7l-3.8-19.4c-1.4-6.9-2-9.1-5.6-10l-2.3-0.5v-2.5h33v2.5l-4,0.7c-6,1.1-5.1,7.6-3.6,14.7l13.7,71.2l13.5-67.4
			c2.5-14,1.3-17.5-4.1-18.5l-3.8-0.7v-2.5h22.9v2.5l-2.5,0.9c-3.6,1.3-4.5,4.7-7,16.7l-22,105.8h-4.7l-17-82.6l-15.3,82.6h-6
			L39.7,36.1z"/>
		<path class="st0" d="M165.4,145.4c-10.5,0-14.1-7.3-17.5-7.3c-2,0-4.3,0.5-6.1,6.5h-2.2v-41.5h2.7c2.2,23.5,10.8,38.2,22.9,38.2
			c8.1,0,13.7-7.5,13.7-20.9c0-28.4-40.3-40.5-40.3-72c0-16.9,8.5-29.8,23.8-29.8c9.9,0,11.9,6.5,16.1,6.5c2.3,0,4-1.8,4.9-5.8h2.2
			v41.5h-2.7c-2.2-20.9-7.6-38.2-20.6-38.2c-9,0-10.6,9.1-10.6,15.3c0,27.1,40.3,36.4,40.3,74.2
			C191.9,131.3,181.4,145.3,165.4,145.4"/>
		<path class="st0" d="M243.5,115.7c0,19.5-9.8,29.6-24.7,29.6c-13.5,0-21.5-11.1-21.3-23.3c0.2-9.5,7-14.2,12.6-13.5
			c4,0.5,7.9,3.4,7.4,9.8c-0.5,9.1-10.3,8.7-10.6,14.4c-0.4,3.5,4.2,8.5,9.9,8.5c10.1,0,10.1-12.9,10.1-22.7V30.4
			c0-5.1-1.6-6.5-5.6-7.4l-4.5-1.1v-2.5h35.6v2.5l-4,1.1c-3.6,0.9-4.9,2.5-4.9,7.6L243.5,115.7L243.5,115.7z"/>
	</g>
</g>
</svg>
